<?xml version="1.0" standalone="no"?>
<!DOCTYPE svg PUBLIC "-//W3C//DTD SVG 1.1//EN" "http://www.w3.org/Graphics/SVG/1.1/DTD/svg11.dtd" >
<svg>
<metadata>
Created by FontForge 20120702 at Thu Mar 13 15:25:04 2014

</metadata>
<defs>
<font id="SimonWriting" horiz-adv-x="519" >
  <font-face 
    font-family="SimonWriting"
    font-weight="400"
    font-stretch="normal"
    units-per-em="1024"
    panose-1="2 0 5 3 0 0 0 0 0 0"
    ascent="819"
    descent="-205"
    x-height="703"
    cap-height="1112"
    bbox="29 -218 1488 1553"
    underline-thickness="0"
    underline-position="0"
    unicode-range="U+0020-20AC"
  />
    <missing-glyph />
    <glyph glyph-name="space" unicode=" " horiz-adv-x="850" 
 />
    <glyph glyph-name="aminuscule" unicode="a" horiz-adv-x="676" 
d="M528 878c77 -57 118 -190 118 -323c0 -75 -14 -151 -41 -213c-112 -51 -208 -117 -370 -117c-17 0 -34 1 -52 2c0 8 -1 16 -1 24c0 248 168 327 384 359v12c0 85 -61 110 -76 180c-20 5 -38 7 -53 7c-74 0 -102 -46 -175 -46h-2h-4c-97 0 -115 -143 -175 -143
c-14 0 -31 8 -51 28c66 173 246 230 485 230h13zM260 304c11 -1 21 -1 31 -1c131 0 211 49 237 154c-51 0 -35 67 -77 76c-57 -83 -191 -88 -191 -229z" />
    <glyph glyph-name="b" unicode="b" horiz-adv-x="759" 
d="M74 1145c160 -43 118 -286 130 -476c96 40 191 68 278 68c91 0 173 -31 241 -111c4 -34 6 -65 6 -95c0 -201 -99 -301 -300 -301c-29 0 -61 2 -95 6c3 166 303 35 303 204v12c-14 101 -44 187 -130 217c-206 -39 -348 -144 -390 -347c-65 18 -87 64 -87 119
c0 93 63 211 87 271c-34 86 -46 195 -46 315c0 38 1 78 3 118z" />
    <glyph glyph-name="cminuscule" unicode="c" horiz-adv-x="843" 
d="M510 800c-166 -57 -325 6 -390 -217c23 -240 266 -261 529 -261c54 0 109 1 164 1c-97 -67 -224 -101 -348 -101c-205 0 -400 92 -431 275c-2 14 -4 29 -4 44c0 151 119 339 287 339c59 0 124 -23 193 -80z" />
    <glyph glyph-name="dminuscule" unicode="d" horiz-adv-x="776" 
d="M508 1182c122 -19 138 -144 138 -285c0 -51 -2 -104 -2 -155c0 -125 13 -238 102 -275c-6 -31 -42 -46 -76 -46s-67 15 -67 46c-142 -85 -206 -246 -432 -246c-28 0 -59 3 -92 8c-34 67 -49 130 -49 190c0 227 218 394 430 429c0 45 -2 92 -2 137c0 82 7 158 50 197z
M127 324c20 -2 40 -3 58 -3c236 0 302 170 323 384h-3c-252 0 -378 -126 -378 -378v-3z" />
    <glyph glyph-name="e.minuscule" unicode="e" horiz-adv-x="913" 
d="M713 855c-1 -10 -2 -19 -2 -27c0 -49 22 -76 59 -87c-55 -154 -143 -275 -342 -285c7 -98 94 -117 199 -117c63 0 132 7 195 7c21 0 42 -1 61 -3c-7 -99 -95 -117 -201 -117c-62 0 -130 6 -192 6c-22 0 -42 -1 -62 -3c-65 181 -398 94 -398 340v1c40 -24 73 -35 102 -35
c167 0 189 343 452 343c38 0 80 -7 129 -23zM371 570c8 -2 16 -3 24 -3c83 0 187 89 187 140c0 17 -12 30 -40 34c-6 -102 -172 -46 -172 -155c0 -5 0 -10 1 -16z" />
    <glyph glyph-name="f.minuscule" unicode="f" horiz-adv-x="535" 
d="M435 1133c29 -27 20 -93 67 -102c2 -17 3 -32 3 -47c0 -109 -54 -163 -138 -189c-36 5 -50 12 -50 24c0 32 101 91 101 181c0 20 -5 42 -17 65c-24 7 -44 10 -61 10c-95 0 -96 -94 -141 -145c-3 -32 -4 -63 -4 -92c0 -117 19 -215 37 -313c23 -67 103 -77 135 -135
c2 -34 3 -67 3 -99c0 -148 -22 -274 -70 -373c-166 92 -23 494 -270 506c228 113 -43 725 298 725c30 0 66 -5 107 -16zM300 188v7c0 24 1 49 1 73c0 64 -8 119 -69 122c31 -59 12 -168 68 -202z" />
    <glyph glyph-name="g" unicode="g" horiz-adv-x="669" 
d="M523 383v9c0 56 -39 72 -39 128c0 5 0 10 1 16c-10 21 -19 29 -28 29c-33 0 -65 -112 -136 -112c-9 0 -19 2 -29 6h-231c-21 48 -31 98 -31 146c0 147 94 278 268 278c11 0 22 -1 33 -2v-6c0 -161 -239 -85 -239 -247c0 -16 2 -34 7 -54c10 -42 77 -25 77 -76h15
c150 0 156 142 255 192c169 -23 111 -273 193 -384v-269c-68 -35 -64 -141 -154 -153c-8 0 -15 -1 -22 -1c-147 0 -209 86 -248 193c33 172 135 274 308 307zM446 344c-35 -100 -161 -111 -161 -247c0 -18 2 -38 7 -60c70 -15 95 -76 181 -76h12c41 43 73 133 73 215
c0 80 -30 152 -112 168z" />
    <glyph glyph-name="h.minuscule" unicode="h" horiz-adv-x="609" 
d="M74 1180c7 1 13 1 19 1c33 0 50 -14 57 -39c-32 -122 -40 -266 -40 -420c0 -51 0 -103 2 -156c131 30 130 192 292 192h15c115 -53 160 -177 160 -345c0 -36 -2 -75 -6 -115c-146 21 -57 275 -154 345h-11c-252 0 -129 -375 -334 -422c-11 184 -44 408 -44 617
c0 122 11 240 44 342z" />
    <glyph glyph-name="i.minuscule" unicode="i" horiz-adv-x="212" 
d="M71 881h82c2 -9 3 -18 3 -25c0 -62 -68 -54 -126 -58c8 33 41 42 41 83zM71 552c52 -49 111 -155 111 -242c0 -33 -8 -63 -29 -87c-79 44 -100 101 -100 171c0 47 10 100 18 158z" />
    <glyph glyph-name="j.minuscule" unicode="j" horiz-adv-x="297" 
d="M213 928h52c1 -6 2 -10 2 -15c0 -39 -43 -35 -80 -37c5 21 26 26 26 52zM161 668c23 -12 47 -23 52 -52c-4 -26 -6 -52 -6 -79c0 -120 35 -250 35 -358c0 -78 -19 -144 -81 -187c-102 12 -131 97 -131 212c0 15 0 32 1 48c52 -44 41 -149 104 -182c39 36 52 85 52 142
c0 109 -48 243 -48 352c0 38 6 74 22 104z" />
    <glyph glyph-name="k.minuscule" unicode="k" horiz-adv-x="806" 
d="M607 88c46 -22 169 11 169 -84c0 -5 0 -11 -1 -17c-321 3 -390 258 -570 402c-9 2 -17 3 -24 3c-99 0 -27 -172 -126 -172c-5 0 -12 1 -18 2c-5 47 -7 91 -7 132c0 238 72 402 74 638c4 0 8 1 11 1c50 0 63 -38 63 -88c0 -51 -13 -115 -13 -166c0 -18 2 -34 6 -48
c13 -31 51 -38 95 -38c37 0 78 5 115 5c42 0 78 -7 92 -34c5 -28 8 -52 8 -75c0 -112 -58 -165 -108 -227c28 -100 133 -120 201 -167c13 -9 22 -62 33 -67zM339 423c19 18 30 43 30 67c0 36 -25 69 -76 69c-7 0 -13 -1 -21 -2c-1 -13 -2 -24 -2 -35c0 -56 20 -92 69 -99z
" />
    <glyph glyph-name="l.minuscule" unicode="l" horiz-adv-x="231" 
d="M195 1140c4 -32 6 -69 6 -111c0 -226 -54 -575 -82 -805h-2c-71 0 -87 63 -87 136c0 59 10 124 12 169c7 204 81 473 153 611z" />
    <glyph glyph-name="m.minuscule" unicode="m" horiz-adv-x="1040" 
d="M932 747c23 -107 78 -175 78 -312c0 -52 -8 -113 -28 -190c-135 27 4 397 -152 397c-8 0 -16 -1 -25 -3c-3 1 -6 1 -9 1c-67 0 -35 -218 -66 -301c-99 98 -115 301 -214 399h-3c-93 0 -96 -198 -117 -357c-7 -1 -14 -2 -20 -2c-117 0 -37 247 -135 270h-7
c-115 0 -77 -341 -159 -413c-32 38 -45 86 -45 138c0 140 93 311 152 406c56 -12 141 10 141 -73v-7c61 103 117 136 172 136c102 0 202 -113 334 -113c32 0 66 7 103 24z" />
    <glyph glyph-name="n.minuscule" unicode="n" horiz-adv-x="696" 
d="M666 297c-13 -2 -25 -3 -36 -3c-201 0 -66 336 -229 374h-16c-243 0 -121 -362 -355 -371c38 245 141 424 318 530c241 -42 264 -302 318 -530z" />
    <glyph glyph-name="o.minuscule" unicode="o" horiz-adv-x="626" 
d="M430 749c81 -89 143 -190 143 -295c0 -68 -25 -137 -88 -204c-42 -5 -81 -8 -117 -8c-148 0 -254 43 -326 119c-8 29 -12 59 -12 88c0 214 208 406 376 406c83 0 157 -47 190 -162c-9 -2 -17 -2 -25 -2c-66 0 -77 55 -141 58zM153 416c50 -36 114 -61 201 -61
c24 0 49 2 76 6c4 29 6 55 6 79c0 142 -71 213 -173 253c-20 -90 -120 -99 -120 -209c0 -19 3 -42 10 -68z" />
    <glyph glyph-name="p.minuscule" unicode="p" horiz-adv-x="721" 
d="M687 775c3 -23 4 -44 4 -64c0 -267 -243 -289 -459 -340c14 -205 87 -351 101 -556c-248 55 -159 447 -252 657c11 -3 21 -4 30 -4c58 0 66 51 71 105c-6 22 -14 29 -25 29c-22 0 -54 -32 -102 -32c-8 0 -16 1 -25 3c48 152 242 303 428 303c82 0 163 -29 229 -101z
M283 523c159 9 301 35 303 202c-35 6 -67 9 -96 9c-135 0 -207 -62 -207 -197v-14z" />
    <glyph glyph-name="q.minuscule" unicode="q" horiz-adv-x="718" 
d="M688 716c-67 44 -142 64 -214 64c-163 0 -316 -103 -360 -269c46 -36 89 -50 131 -50c135 0 249 148 361 173c-13 -85 -17 -166 -17 -243c0 -169 21 -319 21 -449c0 -30 -1 -59 -4 -87c-106 23 -125 134 -125 264c0 73 6 152 6 225c0 30 -1 58 -4 85c-4 4 -11 5 -21 5
c-51 0 -172 -45 -275 -45c-67 0 -126 19 -155 81c-1 10 -2 20 -2 30c0 199 239 379 433 379c99 0 187 -47 225 -163z" />
    <glyph glyph-name="r.minuscule" unicode="r" horiz-adv-x="862" 
d="M832 693c-51 4 -100 6 -147 6c-176 0 -324 -29 -455 -73v-401c-219 26 -162 328 -200 535c181 8 394 119 561 119c105 0 192 -44 241 -186z" />
    <glyph glyph-name="s.minuscule" unicode="s" 
d="M73 878c142 -31 325 -21 346 -174c-17 -4 -32 -6 -45 -6c-75 0 -94 56 -169 56c-13 0 -28 -2 -45 -6c48 -186 329 -242 329 -420c0 -30 -8 -62 -26 -100c-17 2 -36 3 -56 3c-56 0 -119 -7 -175 -7c-89 0 -161 18 -161 107c0 8 1 17 2 27c83 -11 139 -50 233 -50
c21 0 44 2 70 7c-16 210 -346 242 -346 431c0 37 13 80 43 132z" />
    <glyph glyph-name="t.minuscule" unicode="t" horiz-adv-x="550" 
d="M112 1124c13 3 24 5 33 5c43 0 54 -32 54 -74s-11 -95 -11 -137c0 -15 2 -28 5 -39c99 51 199 102 327 123c-22 -155 -174 -181 -327 -205v-9c0 -228 117 -341 123 -563c-146 82 -204 251 -204 478v12c-1 40 -50 32 -82 41c37 29 41 92 41 159v50c0 67 4 130 41 159z" />
    <glyph glyph-name="u.minuscule" unicode="u" horiz-adv-x="1051" 
d="M51 699c14 2 26 3 37 3c64 0 78 -30 78 -73c0 -31 -7 -68 -7 -106c0 -49 12 -98 65 -135c17 -1 33 -2 48 -2c291 0 232 239 409 317c16 -189 89 -296 235 -296c32 0 66 5 105 15c-16 -80 -109 -137 -194 -137c-70 0 -134 38 -149 130c-90 -94 -213 -139 -327 -139
c-170 0 -321 100 -321 291c0 40 6 84 21 132z" />
    <glyph glyph-name="v.minuscule" unicode="v" horiz-adv-x="880" 
d="M30 781c190 -47 190 -284 328 -383c165 83 161 336 409 336c25 0 52 -2 83 -8c-138 -171 -286 -334 -437 -492c-236 73 -339 281 -383 547z" />
    <glyph glyph-name="w.minuscule" unicode="w" horiz-adv-x="1020" 
d="M31 799c140 -68 152 -263 240 -383c125 8 69 195 202 195c11 0 23 -1 37 -4c76 -100 111 -239 286 -239h2h7c38 0 47 27 47 65c0 41 -11 95 -11 136c0 15 1 27 5 38h6c142 0 137 -146 138 -287c-39 -41 -131 -29 -144 -96c-143 33 -294 58 -336 192
c-105 -14 -92 -146 -210 -146c-9 0 -18 0 -29 2c-93 149 -241 243 -241 485c0 13 0 28 1 42z" />
    <glyph glyph-name="x.minuscule" unicode="x" horiz-adv-x="713" 
d="M30 880c110 -108 264 -171 348 -305c115 26 109 174 250 174h11c1 -10 2 -19 2 -27c0 -108 -120 -95 -132 -191c26 -115 174 -109 174 -250v-11c-69 -30 -166 -45 -262 -45s-192 15 -261 45c15 102 45 188 131 218c-54 158 -261 162 -261 374v18zM291 313c12 4 26 5 42 5
c44 0 99 -11 143 -11c42 0 74 10 76 50c-39 47 -87 72 -132 72c-55 0 -105 -37 -129 -116z" />
    <glyph glyph-name="y.minuscule" unicode="y" horiz-adv-x="639" 
d="M143 885c29 -24 40 -48 40 -72c0 -66 -80 -134 -80 -217c0 -10 1 -21 4 -32c4 -62 60 -73 126 -73c39 0 83 4 122 4c13 0 26 -1 38 -2c140 15 80 229 214 250c1 -64 2 -127 2 -190c0 -318 -25 -612 -216 -739c-10 -1 -20 -1 -29 -1c-142 0 -251 102 -251 219
c0 34 9 70 30 104c43 -100 79 -207 178 -250c162 100 196 328 214 571c-79 -36 -169 -59 -254 -59c-93 0 -181 27 -245 95c-4 27 -6 52 -6 75c0 143 68 219 113 317z" />
    <glyph glyph-name="z.minuscule" unicode="z" horiz-adv-x="927" 
d="M859 875c6 -23 9 -46 9 -68c0 -199 -250 -331 -423 -422c29 -29 61 -39 97 -39c80 0 174 50 276 50c26 0 52 -3 79 -11c-13 -126 -203 -95 -302 -113c-92 -16 -171 -46 -261 -46c-25 0 -51 3 -78 8c40 287 395 258 490 490c-34 30 -74 42 -117 42
c-111 0 -240 -74 -335 -80c-54 -9 -14 -112 -76 -113c-18 -3 -35 -4 -51 -4c-59 0 -102 17 -137 42c190 168 453 264 812 264h17z" />
    <glyph glyph-name="amajuscule" unicode="A" horiz-adv-x="1475" 
d="M1445 61c-260 33 -294 244 -452 356c-64 4 -127 6 -187 6c-242 0 -439 -34 -603 -96c-104 -27 12 -227 -126 -227c-12 0 -28 2 -44 5c-2 28 -3 55 -3 82c0 374 195 595 342 851h113c267 -42 322 -249 451 -399c153 -206 447 -300 509 -578zM260 417
c114 102 338 118 564 132c-70 166 -141 333 -395 355c-8 -141 -202 -289 -202 -411c0 -27 9 -52 33 -76z" />
    <glyph glyph-name="majuscule" unicode="B" horiz-adv-x="994" 
d="M526 1040c18 -54 103 -161 103 -248c0 -36 -15 -68 -55 -92c69 -108 262 -91 338 -193c-6 -22 -8 -40 -8 -55c0 -74 60 -87 60 -161c0 -8 -2 -17 -4 -27c-15 -102 -214 -206 -376 -206c-104 0 -190 44 -204 158c62 -28 141 -48 216 -48c105 0 201 39 219 144v14
c0 162 -139 184 -301 184c-60 0 -124 -3 -184 -3c18 159 179 209 179 331c0 30 -9 64 -33 104h-2c-249 0 -325 -196 -325 -416c0 -162 40 -336 85 -456c-147 52 -204 206 -204 377c0 244 117 523 252 593h244z" />
    <glyph glyph-name="majuscule" unicode="C" horiz-adv-x="1086" 
d="M843 822c-28 -10 -51 -15 -69 -15c-88 0 -77 105 -146 123c-231 -108 -426 -251 -482 -536c34 -166 140 -210 276 -210c154 0 350 56 528 56c36 0 72 -2 106 -8c-69 -117 -287 -175 -506 -175c-222 0 -443 59 -512 175c-4 40 -8 78 -8 114c0 375 247 504 436 690
c51 2 104 5 154 5c126 0 232 -21 232 -147c0 -21 -3 -45 -9 -72z" />
    <glyph glyph-name="majuscule" unicode="D" horiz-adv-x="946" 
d="M60 1027c76 10 148 17 212 17c410 0 605 -217 644 -587c-68 -9 -49 -103 -58 -171c-68 -72 -290 -230 -452 -230c-87 0 -154 45 -174 173c68 -38 130 -55 186 -55c195 0 312 202 312 397c0 184 -104 361 -347 361c-45 0 -95 -5 -151 -19c-33 -27 -44 -59 -44 -95
c0 -72 45 -156 45 -236c0 -45 -15 -87 -59 -125c-116 64 -144 150 -144 255c0 92 21 197 30 315z" />
    <glyph glyph-name="majuscule" unicode="E" horiz-adv-x="707" 
d="M618 882c-54 26 -101 38 -145 38c-188 0 -284 -212 -326 -390c27 -33 57 -45 90 -45c70 0 153 54 243 54c20 0 39 -3 59 -9c-76 -118 -303 -90 -431 -158c-2 -8 -1 -14 -1 -22c0 -58 48 -70 48 -128c0 -12 -2 -26 -8 -44c66 -9 123 -16 174 -16c135 0 231 36 336 132
c14 -24 20 -44 20 -64c0 -136 -308 -171 -491 -171c-58 46 -110 99 -156 157v8c0 388 116 662 353 814c28 2 56 5 82 5c90 0 159 -19 159 -109c0 -15 -2 -32 -6 -52z" />
    <glyph glyph-name="majuscule" unicode="F" horiz-adv-x="539" 
d="M509 823c-94 15 -111 111 -222 111c-9 0 -22 -1 -32 -3c-86 -46 -69 -195 -108 -289c34 -24 62 -32 86 -32c50 0 89 33 175 33c9 0 19 1 29 -1c2 -9 3 -20 3 -28c0 -72 -62 -82 -134 -82c-33 0 -69 2 -102 2h-21c-63 -52 -73 -159 -73 -276c0 -51 1 -104 1 -155v-41
c-6 -2 -11 -1 -15 -1c-54 0 -66 46 -66 97c0 42 8 88 8 116c0 26 -2 53 -2 80c0 261 65 562 183 685c160 -9 258 -78 290 -216z" />
    <glyph glyph-name="majuscule" unicode="G" horiz-adv-x="1147" 
d="M717 866c-36 6 -69 8 -101 8c-332 0 -367 -292 -469 -522c32 -82 89 -139 171 -171c9 0 19 -2 28 -2c352 0 286 420 600 459c92 -156 150 -345 171 -571c-201 8 -162 256 -228 400c-164 -170 -257 -406 -589 -406c-30 0 -62 2 -96 6c-51 100 -140 167 -173 285
c-1 6 -1 12 -1 18v18c0 234 242 432 402 592c6 6 87 60 162 60c62 0 119 -38 123 -174z" />
    <glyph glyph-name="majuscule" unicode="H" horiz-adv-x="731" 
d="M138 1044c34 -28 47 -60 47 -96c0 -80 -60 -176 -60 -286c0 -27 3 -58 13 -86c20 -44 73 -54 137 -54c69 0 149 12 217 12c24 0 48 -2 68 -6c3 20 4 38 4 54c0 117 -58 174 -58 291c0 24 1 50 7 78c246 -54 106 -567 188 -798h-6c-140 0 -133 144 -135 282h-375
c-44 -14 -54 -58 -54 -115c0 -63 13 -139 13 -202c0 -21 -2 -42 -6 -58c-81 6 -93 70 -93 152c0 32 3 66 3 100c0 26 -1 51 -4 75c-6 44 -14 135 -14 239c0 160 21 348 108 418z" />
    <glyph glyph-name="majuscule" unicode="I" horiz-adv-x="628" 
d="M598 1087c-53 -101 -274 -34 -352 -109c46 -170 11 -421 54 -594c21 -3 40 -4 58 -4c81 0 138 24 213 31v-3c0 -85 -119 -123 -246 -123c-142 0 -294 48 -295 126c52 -7 87 -31 145 -31c13 0 28 1 44 4c-8 36 -10 77 -10 120c0 73 7 153 7 226c0 136 -24 247 -159 248
c55 88 216 134 366 134c63 0 124 -8 175 -25z" />
    <glyph glyph-name="majuscule" unicode="J" horiz-adv-x="569" 
d="M533 1041c4 -14 6 -24 6 -33c0 -34 -28 -42 -62 -42c-30 0 -64 6 -94 6c-10 0 -21 -1 -30 -3c60 -116 108 -305 108 -483c0 -180 -48 -350 -180 -414c-20 -6 -38 -9 -56 -9c-108 0 -195 105 -195 191c0 51 32 96 108 106c-26 -24 -34 -49 -34 -75c0 -52 40 -103 70 -141
c158 33 206 173 206 332c0 132 -33 275 -63 385c-33 0 -69 -1 -102 -1c-62 0 -119 5 -149 37c48 154 273 135 467 144z" />
    <glyph glyph-name="majuscule" unicode="K" horiz-adv-x="1006" 
d="M976 960c-112 -171 -323 -242 -527 -322c48 -303 267 -437 486 -567c-27 -8 -52 -11 -79 -11c-230 0 -425 269 -488 497c-9 0 -16 1 -24 1c-158 0 -182 -133 -182 -289c0 -64 3 -132 5 -198c-111 6 -137 109 -137 225c0 76 13 157 16 220c12 200 92 526 240 526h1
c-51 -165 -117 -314 -120 -526c266 153 487 350 809 444z" />
    <glyph glyph-name="majuscule" unicode="L" horiz-adv-x="854" 
d="M170 1040c8 2 16 2 22 2c56 0 66 -45 120 -48c-3 -292 -146 -447 -188 -701c134 -177 668 45 700 -234c-230 66 -563 29 -793 95c-1 9 -1 18 -1 27v25c0 292 146 437 146 729c0 33 -2 67 -6 105z" />
    <glyph glyph-name="majuscule" unicode="M" horiz-adv-x="1417" 
d="M40 1039c182 -2 207 -159 366 -183c282 44 509 141 794 183c123 -111 187 -353 187 -591c0 -138 -21 -275 -66 -386c-108 88 -123 272 -123 468c0 86 3 171 3 257c0 22 -1 47 -1 69c-28 4 -57 6 -84 6c-231 0 -419 -134 -614 -134c-70 0 -144 18 -219 66
c-124 -118 -78 -409 -183 -549c-56 57 -70 157 -70 269c0 128 18 274 18 402c0 44 -2 85 -8 123z" />
    <glyph glyph-name="majuscule" unicode="N" horiz-adv-x="1213" 
d="M157 1042c440 -81 310 -727 750 -808c52 33 68 107 68 194c0 92 -17 198 -17 290c0 118 28 212 146 212c10 0 22 0 34 -2c33 -33 45 -57 45 -77c0 -50 -80 -69 -102 -155c15 -111 66 -186 66 -312c0 -28 -3 -58 -9 -92c-106 -9 -35 -196 -115 -232
c-496 24 -556 482 -750 809c-130 -178 -111 -506 -174 -750c-50 86 -69 211 -69 345c0 224 55 468 127 578z" />
    <glyph glyph-name="majuscule" unicode="O" horiz-adv-x="1512" 
d="M1482 868c-44 -609 -474 -801 -1084 -801c-96 0 -195 5 -299 14c-48 104 -69 199 -69 289c0 417 464 668 904 668c204 0 404 -54 548 -170zM180 255c80 -8 157 -11 231 -11c442 0 758 137 827 537c-110 42 -237 65 -365 65c-345 0 -693 -167 -693 -569v-22z" />
    <glyph glyph-name="majuscule" unicode="P" horiz-adv-x="1003" 
d="M30 808c72 186 320 234 630 234c38 0 78 0 117 -2c42 -82 172 -76 187 -186c6 -21 9 -37 9 -52c0 -70 -60 -86 -60 -156c0 -8 1 -17 3 -26c-81 -48 -267 -141 -414 -141c-90 0 -166 36 -192 141c38 -9 164 -37 272 -37c62 0 118 9 148 37c26 22 23 69 47 93
c3 3 85 47 93 47v6c0 114 -146 186 -299 186c-165 0 -340 -83 -354 -285c-4 -26 -7 -48 -7 -69c0 -135 97 -171 100 -305c39 -102 176 -105 186 -234c-224 28 -370 276 -370 525c0 76 13 154 43 224c-6 20 -15 27 -24 27c-20 0 -48 -30 -93 -30c-8 0 -14 1 -22 3z" />
    <glyph glyph-name="majuscule" unicode="Q" horiz-adv-x="1091" 
d="M924 852c-80 80 -176 112 -274 112c-232 0 -471 -185 -509 -391c15 -116 149 -112 224 -168c105 106 26 395 238 395c14 0 27 -2 42 -4c-22 -102 -112 -136 -112 -260v-18c10 -45 55 -57 55 -113h14c81 0 106 57 187 57c8 0 15 0 23 -2s15 -1 21 -1c130 0 29 231 159 231
c12 0 27 -2 43 -6c16 -38 26 -73 26 -106c0 -172 -212 -284 -456 -284h-17c72 -134 109 -303 281 -336c-33 -60 -71 -84 -110 -84c-135 0 -292 284 -337 420c-16 -2 -35 -3 -50 -3c-189 0 -250 129 -342 227c45 272 212 422 392 558c20 -2 40 -2 61 -2c69 0 144 6 213 6
c130 0 237 -23 237 -153c0 -22 -3 -47 -9 -75z" />
    <glyph glyph-name="majuscule" unicode="R" horiz-adv-x="1142" 
d="M550 763c3 -15 4 -29 4 -41c0 -144 -234 -53 -238 -193c100 -290 522 -257 796 -373c-70 -18 -150 -29 -232 -29c-309 0 -648 136 -657 450c-2 12 -3 22 -3 31c0 130 205 56 237 155c2 9 1 17 1 25c0 86 -53 119 -139 119c-15 0 -33 -1 -49 -3
c-94 -84 -134 -268 -140 -422v-13c0 -132 66 -254 66 -341c0 -26 -6 -48 -20 -66c-100 84 -146 252 -146 426c0 238 87 492 240 556c184 -3 277 -97 280 -281z" />
    <glyph glyph-name="majuscule" unicode="S" horiz-adv-x="924" 
d="M222 941c-12 -12 -16 -24 -16 -36c0 -84 230 -186 256 -302c126 -82 242 -174 242 -382c0 -15 0 -34 -2 -50c-56 -50 -252 -111 -418 -111c-135 0 -250 39 -254 159c74 -30 184 -52 292 -52c120 0 236 26 284 100c-112 336 -506 392 -576 770c21 4 44 6 68 6
c230 0 562 -166 796 -246c-28 -14 -64 -18 -104 -18c-172 0 -430 104 -568 162z" />
    <glyph glyph-name="majuscule" unicode="T" horiz-adv-x="1315" 
d="M37 1025c17 -1 35 -1 54 -1h57c120 0 258 2 399 2h86l85 -1h18c92 0 210 18 314 18c120 0 221 -26 235 -132c-34 -27 -75 -36 -120 -36c-104 0 -235 49 -381 49c-40 0 -81 -4 -123 -13c-124 -56 -163 -166 -163 -295c0 -182 78 -403 106 -557c-174 8 -234 217 -234 429
c0 140 27 280 65 366c-4 52 -46 66 -102 66c-62 0 -138 -16 -200 -16c-58 0 -103 15 -103 73c0 14 3 30 7 48z" />
    <glyph glyph-name="majuscule" unicode="U" horiz-adv-x="814" 
d="M80 1040c80 -9 104 -43 104 -94c0 -86 -70 -217 -70 -341c0 -36 5 -70 20 -103c38 -44 54 -106 54 -186v-29h3c102 0 142 -63 246 -63c21 0 45 3 73 9c150 102 104 399 215 539c42 -58 59 -133 59 -213c0 -186 -92 -396 -166 -488c-33 -8 -61 -10 -88 -10
c-126 0 -187 66 -315 66c-9 0 -18 -2 -27 -2c-96 148 -158 368 -158 590c0 111 16 221 50 325z" />
    <glyph glyph-name="majuscule" unicode="V" horiz-adv-x="1265" 
d="M33 1040c189 0 150 -220 218 -326c60 -94 220 -151 220 -283c0 -14 -1 -27 -4 -42c246 76 330 570 630 570c39 0 82 -7 130 -27c4 -18 8 -32 8 -44c0 -82 -113 -32 -171 -66c-248 -144 -404 -447 -488 -759c-302 96 -225 571 -489 705c8 24 11 46 11 62
c0 82 -68 99 -68 180c0 9 1 20 3 30z" />
    <glyph glyph-name="majuscule" unicode="W" horiz-adv-x="1518" 
d="M81 1040c9 2 16 3 24 3c40 0 63 -26 72 -65c-32 -96 -51 -231 -51 -363c0 -188 41 -369 147 -420c206 183 174 667 382 845c166 -112 231 -355 240 -665h16c346 0 405 363 511 665h3c45 0 63 -48 63 -116c0 -134 -66 -343 -114 -427c-100 -176 -289 -272 -431 -302
c-189 84 -162 439 -240 663c-180 -156 -188 -528 -288 -784c-34 -9 -66 -14 -94 -14c-224 0 -291 257 -291 531c0 159 23 325 51 449z" />
    <glyph glyph-name="majuscule" unicode="X" horiz-adv-x="852" 
d="M610 1040c78 -20 106 -54 106 -96c0 -105 -182 -257 -210 -326c114 -134 216 -276 316 -423c-27 -98 -79 -132 -142 -132c-68 0 -148 40 -228 80c10 45 60 51 116 51h50h17c10 0 21 0 28 1c-80 80 -94 222 -211 264h-11c-208 0 -108 -306 -306 -316c0 9 -1 18 -1 27
c0 184 116 254 160 396c-42 117 -184 130 -264 210c20 42 48 57 78 57c78 0 178 -101 238 -110c177 16 210 177 264 317z" />
    <glyph glyph-name="majuscule" unicode="Y" horiz-adv-x="864" 
d="M658 826c42 -14 86 -21 131 -21c15 0 30 1 45 3c-9 -30 -18 -57 -27 -87h-9c-122 -76 -218 -179 -418 -179c-22 0 -45 2 -71 5c-72 -160 -14 -451 -209 -489c32 135 104 231 104 399v19c-10 117 -154 102 -174 210c32 118 15 286 105 348c18 4 33 8 45 8
c92 0 57 -126 129 -147c-3 -21 -10 -29 -19 -29c-28 0 -78 76 -86 100c-98 -18 -64 -169 -104 -245c34 -70 137 -105 245 -105c152 0 313 67 313 202v8z" />
    <glyph glyph-name="majuscule" unicode="Z" horiz-adv-x="1409" 
d="M426 239c68 -40 141 -54 219 -54c192 0 405 87 579 87c57 0 109 -9 155 -33c-15 -78 -72 -93 -138 -93c-44 0 -91 6 -135 6c-16 0 -31 0 -45 -3c-160 -28 -345 -90 -497 -90c-92 0 -172 22 -228 90v5c0 216 236 260 362 358c130 100 282 166 363 318
c-51 78 -127 102 -213 102c-110 0 -233 -39 -332 -57c-180 -32 -333 -134 -486 -136c10 38 23 76 35 114c268 24 552 189 814 189c94 0 186 -21 273 -77c2 -15 2 -28 2 -42c0 -327 -285 -399 -501 -547c-66 -46 -129 -137 -216 -137h-11z" />
    <glyph glyph-name="zero" unicode="0" horiz-adv-x="568" 
d="M215 863c34 11 66 16 94 16c156 0 229 -147 229 -302c0 -172 -91 -354 -262 -354h-10c-153 7 -236 168 -236 329c0 136 59 272 185 311zM292 300c129 9 190 134 190 260c0 129 -64 258 -182 258c-32 0 -69 -10 -110 -32c-73 -40 -110 -133 -110 -228
c0 -128 67 -258 198 -258h14z" />
    <glyph glyph-name="numéro 1" unicode="1" horiz-adv-x="457" 
d="M383 686c-6 1 -12 1 -18 1c-115 0 -215 -172 -335 -221c114 207 298 214 397 419c-9 -195 -47 -404 -47 -578c0 -29 1 -57 3 -84c-38 31 -53 113 -53 201c0 107 22 221 53 262z" />
    <glyph glyph-name="deux" unicode="2" horiz-adv-x="391" 
d="M274 875c25 -45 36 -89 36 -133c0 -163 -146 -312 -210 -432c23 -27 49 -36 77 -36c54 0 115 34 184 36c-9 -77 -87 -87 -174 -87c-30 0 -61 1 -90 1c-14 0 -28 0 -41 -1c-1 9 -2 17 -2 25c0 165 209 296 209 487c0 24 -3 49 -11 75c-11 2 -21 2 -30 2
c-129 0 -124 -146 -144 -198c-34 14 -48 39 -48 68c0 81 110 195 219 195c9 0 17 -1 25 -2z" />
    <glyph glyph-name="three" unicode="3" horiz-adv-x="428" 
d="M350 878c13 -36 35 -62 48 -98c-16 -89 -89 -120 -145 -169c82 -37 119 -124 119 -232c0 -49 -8 -102 -22 -157c-112 44 -320 -6 -320 151c0 13 2 28 5 44c73 -16 82 -96 145 -122c45 19 89 41 146 49c3 17 4 32 4 46c0 115 -90 141 -174 172c19 111 131 127 170 218
c-18 21 -38 28 -59 28c-54 0 -115 -47 -164 -47c-16 0 -31 5 -44 19c47 82 172 88 291 98z" />
    <glyph glyph-name="quatre" unicode="4" horiz-adv-x="326" 
d="M132 878c8 -17 11 -36 11 -54c0 -87 -72 -183 -72 -286v-7c7 -27 36 -33 41 -62c94 8 105 99 163 143c-4 -44 -9 -112 -9 -180c0 -83 7 -167 30 -208h-7c-93 0 -64 122 -75 205c-30 -10 -55 -15 -76 -15c-43 0 -73 20 -108 55c19 152 35 306 102 409z" />
    <glyph glyph-name="numéro 5" unicode="5" horiz-adv-x="489" 
d="M407 791c-18 -18 -36 -24 -55 -24c-40 0 -83 29 -140 29c-12 0 -25 -2 -39 -5c64 -118 230 -134 286 -260c-60 -129 -144 -307 -309 -307c-32 0 -67 7 -106 22c-9 40 -14 52 -14 64s5 25 14 65c6 1 12 2 17 2c57 0 30 -83 87 -83c7 0 15 1 25 4c129 9 147 129 208 207
c-59 131 -241 140 -311 260c-1 3 -1 7 -1 10c0 65 100 103 191 103c76 0 146 -26 147 -87z" />
    <glyph glyph-name="numéro 6" unicode="6" horiz-adv-x="488" 
d="M458 868c-134 -83 -266 -169 -315 -338c1 -8 9 -11 20 -11c27 0 77 16 122 16c14 0 26 -1 38 -5c52 -39 73 -83 73 -124c0 -97 -115 -182 -216 -182c-79 0 -150 52 -150 193c0 105 228 462 385 462c15 0 29 -4 43 -11zM120 283c17 -2 34 -3 49 -3c90 0 144 36 154 115
c-19 63 -71 90 -122 90c-65 0 -130 -42 -130 -104c0 -29 14 -62 49 -98z" />
    <glyph glyph-name="numéro 7" unicode="7" horiz-adv-x="489" 
d="M384 861c1 -7 1 -14 1 -20c0 -66 -29 -105 -29 -172c0 -13 1 -28 4 -44c5 -16 9 -22 14 -22c14 0 29 51 62 51c6 0 12 -1 19 -5c3 -13 4 -24 4 -35c0 -64 -45 -83 -109 -83h-13c1 -10 2 -20 2 -29c0 -101 -80 -123 -80 -224c0 -16 2 -34 7 -54c-38 17 -51 43 -51 74
c0 59 48 134 51 186c-7 10 -16 14 -28 14c-42 0 -111 -51 -155 -51c-12 0 -22 4 -29 13c45 73 145 91 236 118c6 65 27 115 27 185c0 16 -1 32 -4 51c-131 -3 -175 -92 -283 -118c32 98 149 181 267 181c29 0 59 -5 87 -16z" />
    <glyph glyph-name="huit" unicode="8" horiz-adv-x="458" 
d="M428 874c-3 -134 -105 -167 -156 -253c42 -81 114 -134 137 -234c-73 -102 -176 -163 -297 -163c-24 0 -49 2 -74 7c-5 19 -8 37 -8 55c0 138 144 227 184 354c-14 28 -21 55 -21 79c0 100 110 160 196 160c14 0 27 -2 39 -5zM77 270c133 10 212 74 293 136
c-68 42 -77 144 -156 176c-23 -119 -138 -147 -138 -288c0 -8 0 -16 1 -24zM272 679c10 32 74 72 74 109c0 10 -4 19 -15 28c-33 -23 -92 -57 -92 -93c0 -14 10 -29 33 -44z" />
    <glyph glyph-name="numéro 9" unicode="9" horiz-adv-x="491" 
d="M355 874c73 -71 106 -168 106 -265c0 -191 -126 -384 -313 -384c-37 0 -77 7 -118 24c81 115 383 30 383 274c0 22 -3 48 -8 76c-40 52 -175 8 -225 50c-12 33 -19 64 -19 92c0 79 49 136 152 136c13 0 27 -1 42 -3zM380 674c1 6 1 12 1 18c0 76 -44 109 -120 109
c-10 0 -20 -1 -31 -2c-1 -8 -1 -15 -1 -22c0 -84 71 -98 151 -103z" />
    <glyph glyph-name="point" unicode="." horiz-adv-x="177" 
d="M30 262c7 35 33 50 59 50c29 0 57 -19 58 -50c-8 -27 -16 -36 -26 -36c-19 0 -44 36 -85 36h-6z" />
    <glyph glyph-name="euro" unicode="&#x20ac;" horiz-adv-x="890" 
d="M787 861c2 -8 2 -16 2 -23c0 -57 -46 -89 -85 -89c-15 0 -29 4 -39 14c4 29 44 21 73 25c-29 14 -55 20 -79 20c-125 0 -193 -166 -263 -240c33 -23 82 -29 137 -29c61 0 130 8 191 8c55 0 103 -6 136 -28c-55 -42 -143 -50 -240 -50c-60 0 -125 3 -185 3
c-22 0 -42 0 -63 -1c104 -45 200 -98 350 -98h16c3 -4 4 -8 4 -11c0 -16 -32 -19 -71 -19c-34 0 -75 3 -104 5c-56 4 -106 31 -144 31c-10 0 -19 -1 -27 -6c1 -88 130 -50 171 -98c20 -2 40 -3 58 -3c80 0 141 18 211 28c-36 -56 -103 -75 -179 -75c-99 0 -212 31 -285 50
c0 43 -52 35 -52 78c0 6 1 12 3 20h-171c-1 6 -2 11 -2 15c0 31 25 37 56 37c20 0 43 -3 63 -3c26 0 48 5 54 24c-20 23 -57 28 -100 28c-46 0 -99 -7 -145 -7c-17 0 -33 1 -48 4c8 47 55 55 111 55c25 0 51 -2 77 -2c40 0 78 3 105 20c101 115 182 334 370 334
c29 0 60 -6 94 -17z" />
    <glyph glyph-name="dollar" unicode="$" horiz-adv-x="828" 
d="M349 877c3 0 6 1 9 1c30 0 37 -23 37 -52s-7 -64 -7 -93c0 -30 8 -52 38 -52c8 0 17 1 29 5c9 1 12 7 12 16c0 22 -17 62 -17 100c0 11 1 22 5 32c69 -2 46 -96 64 -148c34 -70 191 -18 191 -122v-6c-7 -1 -13 -1 -19 -1c-70 0 -74 65 -144 65h-7c-2 -9 -3 -17 -3 -24
c0 -64 92 -35 130 -61h2c63 0 81 -45 126 -64c2 -15 3 -30 3 -43c0 -168 -176 -206 -355 -206c-87 0 -175 9 -243 16c0 4 1 7 1 10c0 18 -8 28 -22 32v6c0 48 33 62 42 100h3c16 0 21 -12 21 -28c0 -18 -6 -43 -6 -61c0 -7 1 -12 3 -17h128v9c0 68 -25 110 -25 178
c0 14 1 30 4 47c-14 1 -28 2 -43 2c-40 0 -84 -4 -125 -4c-79 0 -146 13 -151 87c89 46 213 57 319 85v191zM221 643c-5 -56 -107 -14 -107 -73c0 -4 0 -8 1 -12h234v85c-10 2 -19 3 -27 3c-35 0 -54 -18 -73 -18c-9 0 -18 4 -28 15zM391 558h85v85c-9 1 -17 2 -24 2
c-42 0 -63 -21 -63 -63c0 -7 1 -15 2 -24zM412 282c30 -2 59 -3 87 -3c142 0 253 31 253 173c-50 35 -123 47 -191 64c-4 -11 -6 -22 -6 -33c0 -45 29 -85 29 -118c0 -15 -6 -29 -23 -41c-57 28 -36 135 -64 192h-85c-13 -16 -17 -32 -17 -50c0 -40 22 -85 22 -140
c0 -14 -1 -29 -5 -44z" />
    <glyph glyph-name="esperluette" unicode="&#x26;" horiz-adv-x="576" 
d="M357 797c-38 -91 -90 -169 -184 -204c25 -97 114 -131 184 -184c66 9 70 79 102 122c19 56 63 87 82 143c3 -9 5 -19 5 -29c0 -71 -68 -180 -107 -236v-4c0 -68 73 -61 102 -98c-10 -17 -24 -23 -39 -23c-36 0 -81 35 -104 43c-44 -44 -107 -70 -164 -102h-11
c-107 0 -193 107 -193 206c0 46 19 90 61 121c0 61 -53 69 -61 122v3c0 106 108 201 205 201c48 0 94 -24 122 -81zM112 613c96 33 170 89 184 205c-22 12 -45 17 -66 17c-81 0 -147 -77 -147 -149c0 -26 9 -52 29 -73zM153 286c11 -1 21 -2 31 -2c65 0 107 24 153 43
c-37 78 -106 126 -184 164c-4 14 -14 21 -31 21c-3 0 -6 -1 -10 -1c-24 -24 -33 -51 -33 -78c0 -54 38 -109 74 -147z" />
    <glyph glyph-name="latin minuscule é" unicode="&#xe9;" horiz-adv-x="829" 
d="M799 1061c-1 -117 -159 -105 -301 -134c-90 -18 -185 -60 -258 -60c-30 0 -56 7 -76 26c46 99 212 78 334 101c108 15 181 64 301 67zM364 726c33 -45 113 -43 134 -100c4 -15 6 -27 6 -38c0 -50 -41 -60 -41 -110c0 -6 1 -12 2 -19c-41 -15 -109 -33 -170 -33
c-70 0 -130 23 -131 100c26 -24 71 -36 117 -36c66 0 134 24 150 69c-20 61 -60 86 -105 86c-85 0 -187 -90 -196 -186c10 -180 227 -153 368 -201c-45 -26 -92 -37 -138 -37c-145 0 -283 107 -330 204c37 175 153 270 334 301z" />
    <glyph glyph-name="egrave" unicode="&#xe8;" horiz-adv-x="740" 
d="M459 660c-36 0 -61 -18 -72 -91c15 -1 28 -2 42 -2c82 0 145 20 173 73c-58 0 -107 20 -143 20zM534 715c62 0 123 -12 175 -39c1 -10 1 -18 1 -27c0 -137 -121 -153 -258 -153c-42 0 -86 2 -128 2c-15 0 -30 0 -44 -1v-13c0 -198 227 -169 393 -201
c-39 -44 -84 -60 -133 -60c-97 0 -207 64 -296 96c-43 64 -6 208 -71 250c59 82 214 146 361 146zM39 1141c89 0 190 -48 277 -72c86 -24 245 9 250 -107c-184 55 -489 -12 -536 179h9z" />
    <glyph glyph-name="edieresis" unicode="&#xeb;" horiz-adv-x="604" 
d="M75 1071c70 -1 100 -56 100 -115c0 -43 -16 -88 -44 -114c-67 38 -65 145 -90 225c12 2 24 4 34 4zM446 977v-10c0 -95 -82 -152 -153 -152c-28 0 -54 9 -72 27c31 89 120 120 225 135zM344 737c26 0 57 -4 94 -15c4 -23 5 -44 5 -63c0 -147 -98 -197 -186 -255
c11 -70 51 -89 98 -89c53 0 117 24 164 24c24 0 43 -6 55 -25c-54 -63 -118 -89 -184 -89c-164 0 -335 163 -360 315h4c169 0 141 197 310 197z" />
    <glyph glyph-name="ecircumflex" unicode="&#xea;" horiz-adv-x="485" 
d="M283 1200c5 1 9 1 13 1c34 0 40 -28 73 -30c-9 -113 -20 -214 -20 -311c0 -100 11 -194 49 -289c-80 -63 -237 -48 -257 -171v-8c0 -95 82 -109 177 -109c37 0 77 2 114 2h23c-29 -43 -84 -60 -143 -60c-92 0 -194 41 -229 89c3 20 4 38 4 55c0 68 -18 119 -32 173h2
c123 0 155 92 255 115c-26 38 -32 96 -32 160c0 58 5 122 5 180c0 21 0 41 -2 60c-100 -90 -147 -234 -200 -372c-39 16 -53 39 -53 66c0 65 85 148 111 192c16 118 99 167 142 257z" />
    <glyph glyph-name="ccedilla" unicode="&#xe7;" horiz-adv-x="437" 
d="M355 872c37 -5 52 -31 52 -73c0 -8 -1 -17 -2 -27c-7 0 -15 1 -22 1c-206 0 -283 -182 -283 -350c0 -26 2 -52 5 -76c8 2 15 3 22 3c35 0 49 -21 78 -28c43 65 100 117 200 125c-7 -98 -143 -100 -143 -173c0 -14 6 -31 18 -52h-150c5 -65 38 -101 108 -101
c5 0 11 1 17 1c-17 -34 -42 -48 -67 -48c-53 0 -109 62 -109 127c0 24 7 49 26 71c-24 26 -49 51 -75 75c6 278 128 439 325 525z" />
    <glyph glyph-name="icircumflex" unicode="&#xee;" horiz-adv-x="483" 
d="M234 862h113c33 -11 39 -31 39 -53c0 -13 -2 -26 -2 -39c-3 -4 -4 -8 -4 -13c0 -13 9 -30 9 -43c0 -14 -10 -24 -50 -24c-9 0 -19 0 -30 1v132c-148 -27 -172 -98 -262 -145c-12 9 -17 18 -17 27c0 51 168 106 204 157zM209 674c53 -12 59 -72 59 -138v-54s0 -36 2 -52
c10 -71 111 -51 183 -61c-13 -89 -77 -126 -179 -126c-20 0 -42 1 -65 4c-43 41 -65 127 -65 213c0 87 22 174 65 214z" />
    <glyph glyph-name="ocircumflex" unicode="&#xf4;" horiz-adv-x="543" 
d="M262 1051c7 -147 146 -257 146 -386c0 -27 -6 -54 -20 -83c46 -79 110 -140 125 -251c-35 -74 -103 -107 -173 -107c-77 0 -158 40 -203 107c-1 14 -2 27 -2 39c0 155 102 208 221 243c-30 136 -108 225 -156 344c-52 -63 -113 -116 -125 -219c-32 14 -45 35 -45 60
c0 75 112 186 138 253h94zM200 394c20 -67 76 -98 162 -98c18 0 37 1 57 4c5 20 8 39 8 57c0 94 -68 155 -130 155c-47 0 -91 -36 -97 -118z" />
    <glyph glyph-name="idieresis" unicode="&#xef;" horiz-adv-x="304" 
d="M50 878c43 0 61 -33 61 -68c0 -26 -10 -53 -27 -69c-40 23 -39 87 -54 135c7 1 14 2 20 2zM274 822v-6c0 -57 -50 -92 -93 -92c-17 0 -32 6 -43 17c19 53 73 72 136 81zM111 605c18 -21 51 -129 54 -189c1 -27 8 -68 8 -105c0 -46 -11 -85 -55 -85h-7c10 17 14 36 14 56
c0 68 -43 150 -43 228c0 33 7 65 29 95z" />
    <glyph glyph-name="odieresis" unicode="&#xf6;" horiz-adv-x="606" 
d="M425 1062c93 -18 118 -106 118 -195c0 -43 -6 -87 -12 -123c19 -24 34 -54 45 -91c-9 -2 -17 -2 -24 -2c-64 0 -75 52 -136 55c79 -86 138 -184 138 -285c0 -65 -24 -131 -85 -196c-41 -5 -78 -8 -114 -8c-142 0 -244 41 -314 115c-8 28 -11 56 -11 84
c0 207 201 393 363 393c10 0 21 0 31 -2c-1 14 -1 28 -1 43c0 51 4 107 4 158c0 19 0 37 -2 54zM92 1015h143c-19 -86 -17 -191 -122 -191c-6 0 -13 0 -21 1v190zM255 653c-19 -87 -116 -96 -116 -204c0 -18 2 -39 9 -64c49 -35 110 -58 194 -58c23 0 47 1 74 5
c4 27 6 52 6 75c0 138 -68 207 -167 246z" />
    <glyph glyph-name="u" unicode="&#xfb;" horiz-adv-x="575" 
d="M195 1214c158 -28 179 -194 245 -314h-7c-127 0 -108 144 -168 210c-10 2 -18 3 -26 3c-101 0 -57 -146 -158 -146c-8 0 -16 1 -26 3c14 114 73 183 140 244zM125 795c29 -5 39 -26 39 -57c0 -70 -51 -192 -51 -298c0 -51 12 -98 47 -135c112 39 168 136 175 280
c165 -33 133 -264 210 -385h-8c-102 0 -113 92 -132 175h-7c-107 0 -71 -142 -178 -142c-8 0 -16 0 -25 2c-125 19 -165 105 -165 209c0 120 54 263 95 351z" />
    <glyph glyph-name="agrave" unicode="&#xe0;" horiz-adv-x="871" 
d="M158 1100c88 0 188 -46 274 -70s243 8 248 -107c-182 54 -484 -12 -531 177h9zM597 861c31 0 63 -2 94 -5c26 -67 72 -113 139 -139c8 -38 11 -74 11 -109c0 -234 -164 -383 -343 -383c-44 0 -89 9 -132 28c2 166 168 296 297 296c27 0 52 -6 74 -18c4 21 7 40 7 56
c0 123 -115 130 -192 176c-258 -20 -396 -161 -510 -325c-8 25 -12 48 -12 72c0 198 271 351 567 351zM675 439c-64 -1 -170 -50 -170 -95c0 -16 14 -32 47 -45c5 84 140 36 140 125c0 4 0 9 -1 14c-5 1 -10 1 -16 1z" />
    <glyph glyph-name="minuscule u tréma" unicode="&#xfc;" horiz-adv-x="664" 
d="M343 1101c101 -7 117 -124 117 -214c0 -31 -2 -58 -3 -77h-6c-111 0 -81 181 -108 291zM85 1029l113 14c-6 -74 7 -162 -93 -164zM88 826c41 -2 53 -36 53 -88c0 -64 -18 -155 -18 -241c0 -80 15 -155 74 -203c105 53 153 149 153 282c0 16 -1 33 -2 50
c186 -12 184 -269 286 -391c-11 -2 -21 -3 -30 -3c-94 0 -118 91 -149 174c-135 -10 -54 -183 -202 -183h-8c-167 3 -215 130 -215 275c0 116 31 243 58 328z" />
    <glyph glyph-name="o" unicode="&#x153;" horiz-adv-x="833" 
d="M391 777c42 24 108 28 171 35c21 -42 63 -57 72 -98c2 -10 3 -21 3 -30c0 -98 -111 -144 -182 -197c-1 -9 -2 -19 -2 -28c0 -78 52 -137 114 -149c9 -2 17 -3 26 -3c80 0 149 68 210 69c0 -102 -95 -143 -197 -143c-91 0 -188 33 -230 85c-64 -43 -130 -83 -232 -95
c-80 62 -114 166 -114 275c0 161 74 330 182 380c50 -5 85 -31 134 -38c11 -26 30 -42 45 -63zM188 297c75 32 159 72 159 139c0 87 -151 159 -159 256c-2 4 -3 9 -3 13c0 19 16 35 16 45c0 6 -5 9 -21 10c-34 -64 -78 -180 -78 -284c0 -74 22 -141 86 -179zM340 626
c1 5 2 10 2 15c0 40 -31 84 -54 108c-5 -1 -10 0 -15 -1c-2 -10 -3 -22 -3 -33c0 -45 19 -90 61 -90c3 0 6 1 9 1zM465 603c45 17 88 35 88 87c0 7 -1 14 -2 22c-17 22 -35 31 -51 31c-31 0 -56 -33 -56 -75c0 -21 6 -43 21 -65z" />
    <glyph glyph-name="parenthese" unicode="(" horiz-adv-x="295" 
d="M262 807c-32 -18 -62 -7 -91 -25c-55 -34 -79 -137 -79 -244c0 -92 18 -187 49 -245c15 -28 40 -41 40 -65v-5h-5c-75 0 -130 120 -141 206c-3 29 -5 58 -5 86c0 159 53 304 146 363c30 -14 89 -21 89 -57c0 -4 -1 -9 -3 -14z" />
    <glyph glyph-name="parenthese" unicode=")" horiz-adv-x="257" 
d="M120 876c26 -3 53 -37 65 -66c28 -66 42 -167 42 -267c0 -115 -18 -228 -52 -284c-24 -18 -59 -35 -89 -35c-25 0 -47 12 -56 45c108 1 139 89 139 200c0 145 -53 328 -59 407h10z" />
    <glyph glyph-name="crochet" unicode="[" horiz-adv-x="328" 
d="M273 821c-8 -26 -29 -31 -55 -31c-17 0 -36 2 -53 2c-19 0 -37 -3 -49 -15c-10 -42 -14 -91 -14 -142c0 -72 8 -148 20 -209c7 -36 16 -103 32 -113c4 -3 9 -4 14 -4c27 0 63 31 93 31c14 0 27 -7 37 -27c-13 -52 -61 -75 -111 -75c-42 0 -85 16 -109 44
c-24 79 -48 207 -48 325c0 109 20 210 80 258h50c53 0 100 -4 113 -44z" />
    <glyph glyph-name="crochet" unicode="]" horiz-adv-x="392" 
d="M293 853c8 -28 48 -57 60 -101c7 -25 9 -55 9 -88c0 -68 -10 -148 -10 -216c0 -11 0 -21 1 -31c1 -23 3 -45 3 -65c0 -46 -9 -82 -57 -103c-25 9 -58 11 -93 11h-53c-50 0 -97 3 -122 29c-1 4 -1 8 -1 11c0 15 6 23 8 36c28 8 57 12 85 12c49 0 97 -10 143 -18
c5 82 20 180 20 271c0 61 -7 118 -27 165c-64 19 -167 -2 -208 40c13 43 62 53 117 53c43 0 89 -6 125 -6z" />
    <glyph glyph-name="accolade" unicode="{" horiz-adv-x="353" 
d="M261 854c1 -3 1 -6 1 -9c0 -14 -7 -22 -12 -33c-9 2 -18 3 -26 3c-52 0 -86 -41 -86 -90c0 -12 2 -24 6 -36c13 -36 68 -56 68 -101c0 -35 -48 -47 -48 -91c0 -12 3 -26 12 -43c-29 -48 -82 -78 -93 -138c34 -12 68 -36 104 -36h2c63 3 69 61 122 80c8 -11 12 -22 12 -33
c0 -42 -49 -84 -94 -95c-9 -2 -19 -3 -28 -3c-45 0 -89 21 -125 21h-4c-10 24 -30 35 -42 56v2c0 73 48 110 85 158c-6 30 -39 21 -48 46c13 41 69 52 83 92c-39 33 -59 79 -59 125c0 37 13 74 38 102c22 24 52 39 82 39c17 0 34 -5 50 -16z" />
    <glyph glyph-name="accolade" unicode="}" horiz-adv-x="295" 
d="M157 660c12 -15 38 -15 47 -33c-9 -44 -73 -74 -94 -122c74 -10 141 -46 141 -119c0 -11 -2 -23 -5 -36c-13 -49 -73 -88 -136 -103c-14 -3 -32 -9 -48 -9c-12 0 -22 3 -27 13c6 67 153 48 153 129c0 7 -1 14 -3 22c-28 48 -104 46 -155 70c8 58 50 82 75 123
c-7 18 -10 33 -10 47c0 70 75 101 95 159c-5 2 -11 3 -18 3c-28 0 -66 -14 -95 -14c-17 0 -31 5 -38 21c17 37 80 61 136 61c47 0 90 -17 90 -62c0 -62 -89 -104 -108 -150z" />
    <glyph glyph-name="signe égal" unicode="=" horiz-adv-x="430" 
d="M234 608c47 0 93 -9 129 -28c1 -6 1 -11 1 -16c0 -22 -7 -38 -16 -51c-7 0 -15 1 -22 1c-90 0 -178 -36 -251 -36c-16 0 -31 2 -45 6c13 83 109 124 204 124zM316 394c33 0 62 -10 84 -36c-47 -57 -156 -94 -260 -94c-33 0 -66 4 -95 12c-2 14 -9 24 -9 41c0 3 0 7 1 11
c83 5 195 66 279 66z" />
    <glyph glyph-name="signe" unicode="-" horiz-adv-x="368" 
d="M35 398c-3 7 -5 12 -5 18c0 44 85 64 166 64c72 0 142 -16 142 -46c0 -35 -87 -44 -169 -44c-59 0 -115 5 -134 8z" />
    <glyph glyph-name="signe" unicode="+" horiz-adv-x="515" 
d="M297 458c46 0 98 29 143 29c16 0 31 -4 45 -14c-21 -64 -108 -63 -173 -83c-1 -4 -1 -8 -1 -12c0 -26 12 -41 12 -67v-5c-11 -8 -21 -12 -31 -12c-42 0 -72 65 -116 75h-5c-38 0 -78 -28 -109 -28c-12 0 -23 4 -32 17c22 54 82 72 152 79c61 11 22 186 72 186
c9 0 21 -6 37 -19v-25v-51c0 -25 1 -50 6 -70z" />
    <glyph glyph-name="copyright" unicode="&#xa9;" horiz-adv-x="795" 
d="M754 762c8 -36 11 -71 11 -104c0 -146 -65 -270 -128 -367c-60 -43 -137 -63 -217 -63c-89 0 -181 25 -255 70c-75 46 -135 118 -135 211c0 37 10 77 32 121c41 81 143 180 236 221c38 17 75 24 112 24c120 0 234 -74 344 -113zM467 726c29 -20 69 -30 74 -74
c-12 -23 -27 -30 -45 -30c-19 0 -41 8 -66 15c-71 -35 -138 -73 -147 -169c24 -17 49 -23 73 -23c73 0 146 59 214 67c2 -11 12 -12 15 -22c-24 -106 -152 -109 -258 -133c-36 23 -77 41 -103 74c-3 19 -4 37 -4 53c0 119 63 174 129 227h-11c-120 0 -222 -93 -222 -207
c0 -28 6 -58 20 -88c87 -49 175 -98 312 -98c16 0 32 1 49 2c96 36 168 162 168 282c0 47 -11 92 -36 131c-5 -1 -10 -1 -15 -1c-32 0 -69 11 -100 11c-19 0 -35 -4 -47 -17z" />
    <glyph glyph-name="point" unicode="!" horiz-adv-x="271" 
d="M205 1009c20 -50 36 -137 36 -222c0 -117 -31 -231 -124 -241c-10 50 -17 115 -17 180c0 123 25 249 105 283zM147 389c28 -1 57 -14 84 -44c0 -55 -38 -72 -44 -122h-11c-54 0 -103 7 -146 18c2 87 56 148 116 148h1z" />
    <glyph glyph-name="point" unicode="?" horiz-adv-x="331" 
d="M184 336c-4 -44 -34 -63 -47 -99c-25 -6 -50 -12 -79 -14c-14 15 -18 33 -18 53c0 31 10 66 11 99c12 8 25 11 37 11c37 0 71 -30 96 -50zM91 534c-11 12 -13 34 -13 58v41v14c35 9 66 35 89 35c4 0 7 0 10 -2c30 28 46 85 46 140s-16 108 -53 131h-4
c-38 0 -50 -26 -68 -46c6 -32 27 -48 33 -80c-10 -10 -22 -14 -35 -14c-27 0 -55 18 -65 34c-1 9 -1 18 -1 27c0 100 59 163 131 163c29 0 59 -10 89 -31c36 -51 51 -110 51 -169c0 -139 -87 -276 -210 -301z" />
    <glyph glyph-name="virgule" unicode="," horiz-adv-x="160" 
d="M120 378c7 -19 10 -38 10 -58c0 -73 -42 -145 -97 -168c-2 10 -3 20 -3 29c0 67 52 127 60 197h30z" />
    <glyph glyph-name="iminuscule" unicode=";" horiz-adv-x="204" 
d="M133 650h1c29 0 40 -10 40 -25c0 -33 -57 -87 -93 -87c-17 0 -30 12 -30 44c0 40 48 66 73 68h9zM112 359c36 -13 51 -53 51 -98c0 -80 -45 -177 -95 -177h-6c-23 3 -32 15 -32 29c0 23 23 52 43 66c15 58 -9 155 39 180z" />
    <glyph glyph-name="slash" unicode="/" horiz-adv-x="419" 
d="M389 811c-61 -86 -113 -181 -167 -278c-53 -94 -87 -203 -167 -273c-19 10 -25 23 -25 36c0 30 36 66 51 92c24 42 50 94 73 137c60 113 119 241 205 303c11 -5 21 -10 30 -17z" />
    <glyph glyph-name="antiSlash" unicode="\" horiz-adv-x="299" 
d="M269 286c-7 -15 -20 -21 -34 -21c-26 0 -58 21 -68 40c0 2 -1 4 -1 6c0 17 20 16 21 33c-57 152 -117 301 -157 470c9 2 8 12 19 12h4c16 -11 25 -31 40 -43c38 -187 112 -337 176 -497z" />
    <glyph glyph-name="double" unicode="&#x22;" horiz-adv-x="238" 
d="M65 920c17 0 33 -19 37 -33c2 -6 3 -21 3 -40c0 -60 -11 -161 -42 -161h-3c-21 6 -30 56 -30 109c0 59 12 120 30 124c2 0 3 1 5 1zM172 907c14 0 27 -10 36 -20c-1 -12 -1 -25 -1 -38c0 -22 1 -45 1 -67c0 -50 -5 -94 -37 -112c-29 14 -38 51 -38 92c0 47 12 101 17 136
c7 7 15 9 22 9z" />
    <glyph glyph-name="arrobase" unicode="@" horiz-adv-x="544" 
d="M444 486c-12 -2 -23 -2 -34 -2c-56 0 -91 21 -114 55c-26 -27 -57 -47 -91 -47c-20 0 -40 7 -62 23c-3 15 -4 30 -4 43c0 79 50 123 119 139c33 -7 51 -29 76 -43v-13c0 -55 12 -97 67 -97c35 34 49 72 49 109c0 86 -79 163 -165 163c-35 0 -72 -13 -104 -43
c-56 -47 -93 -164 -93 -274c0 -80 19 -155 64 -199c38 -11 71 -24 105 -24c11 0 22 2 34 5c48 14 67 71 115 76c6 -7 8 -15 8 -23c0 -25 -25 -50 -32 -72c-45 -26 -98 -38 -146 -38c-35 0 -68 7 -93 19c-79 38 -113 146 -113 258c0 19 1 38 3 57c4 41 11 95 24 129
c17 45 82 133 119 158c35 23 73 33 112 33c103 0 205 -71 223 -167c2 -13 3 -26 3 -38c0 -71 -35 -133 -70 -187zM277 635c-5 2 -11 3 -16 3c-42 0 -83 -51 -90 -99c8 -3 15 -4 22 -4c44 0 82 48 84 100z" />
    <glyph glyph-name="astérisque" unicode="*" horiz-adv-x="470" 
d="M300 733c1 -1 3 -1 4 -1c13 0 29 44 44 44c2 0 3 -1 5 -2c17 -7 23 -17 23 -29c0 -27 -29 -62 -29 -88c4 -2 9 -3 15 -3c15 0 34 6 49 6c13 0 24 -4 29 -21c-3 -61 -73 -56 -117 -76c14 -47 38 -84 38 -145c0 -11 -1 -23 -3 -36c-11 -5 -21 -7 -29 -7
c-39 0 -52 46 -70 71c-5 -3 -6 -10 -6 -18v-22c0 -8 -1 -15 -6 -18c-4 0 -7 -1 -10 -1c-39 0 -51 25 -51 56c0 24 7 52 15 73c-6 1 -11 2 -17 2c-47 0 -86 -41 -141 -43c-9 12 -13 22 -13 31c0 45 93 63 135 81c-18 52 -106 33 -134 76c8 34 28 45 52 45
c44 0 104 -39 135 -51c12 59 -12 221 40 221c11 0 24 -6 42 -22v-123z" />
    <glyph glyph-name="aring" unicode="&#xe5;" horiz-adv-x="845" 
d="M459 1120h12c22 -30 37 -67 37 -119c0 -14 -2 -30 -4 -47c-22 -24 -69 -35 -116 -35s-94 11 -116 35c20 98 70 165 187 166zM579 843c30 0 61 -2 91 -5c25 -65 69 -110 134 -135c7 -37 11 -72 11 -105c0 -227 -158 -370 -331 -370c-43 0 -87 9 -129 27
c2 161 162 286 287 286c26 0 51 -5 72 -17c4 20 6 38 6 54c0 118 -111 125 -185 170c-250 -19 -383 -155 -494 -314c-8 24 -11 47 -11 70c0 192 262 339 549 339zM654 435c-62 -1 -164 -48 -164 -92c0 -16 13 -31 45 -43c5 81 136 36 136 121c0 4 0 8 -1 13
c-5 1 -10 1 -16 1z" />
    <glyph glyph-name="adieresis" unicode="&#xe4;" horiz-adv-x="657" 
d="M172 1109c52 -1 75 -41 75 -85c0 -32 -12 -66 -33 -85c-50 28 -49 108 -67 167c9 2 17 3 25 3zM447 1039v-7c0 -71 -61 -113 -114 -113c-20 0 -40 6 -53 20c23 66 89 89 167 100zM308 876c50 0 103 -3 154 -4c107 -56 165 -192 165 -325c0 -163 -88 -322 -284 -322
c-17 0 -35 2 -53 4c-15 32 -22 64 -22 94c0 128 128 227 280 249c-15 122 -146 216 -280 216c-51 0 -103 -14 -149 -45c-5 -18 -8 -33 -8 -46c0 -108 182 -34 182 -142c0 -8 -1 -16 -3 -26c-69 59 -221 37 -257 129c-2 16 -3 31 -3 45c0 150 128 173 278 173zM475 450h-1
c-52 0 -100 -52 -100 -92c0 -21 13 -38 45 -43c10 61 71 73 86 129c-10 4 -20 6 -30 6z" />
    <glyph glyph-name="z diacrité" unicode="&#x17e;" 
d="M316 1036c19 0 40 -12 51 -40c-6 -36 -28 -55 -34 -91c-27 -13 -63 -17 -91 -29c-35 15 -58 41 -85 63v10c0 33 10 55 40 58c22 -10 26 -37 28 -68c9 -2 17 -2 24 -2c17 0 30 4 45 13c-12 17 -17 32 -17 45c0 25 18 40 39 41zM236 786h6c80 -3 117 -60 154 -80
c-8 -46 -59 -36 -91 -51c-49 -23 -84 -70 -114 -108h5c49 0 104 31 158 31c22 0 44 -5 65 -20c32 -37 70 -70 70 -139c0 -10 0 -20 -2 -31c-19 -134 -143 -279 -290 -279c-24 0 -49 4 -74 12c-34 12 -93 55 -93 105c0 10 3 21 8 31c64 -33 115 -77 178 -77c19 0 39 4 61 14
c62 27 134 118 134 203c0 36 -13 70 -44 99h-15c-60 0 -121 -19 -172 -19c-34 0 -63 8 -85 36c18 65 63 103 102 147c-16 5 -35 6 -53 6h-18c-33 0 -65 2 -65 35s108 84 175 85z" />
    <glyph glyph-name="scaron" unicode="&#x161;" horiz-adv-x="447" 
d="M249 1090c11 0 25 -3 42 -12c15 -21 21 -43 21 -67c0 -50 -26 -103 -46 -142c-29 -23 -69 -34 -107 -34c-66 0 -129 31 -129 82c0 3 1 7 1 10c4 28 22 39 43 39c28 0 64 -20 83 -47c75 7 22 170 92 171zM197 751h3c88 0 195 -52 217 -117v-5c0 -20 -22 -18 -25 -37
c-64 10 -86 61 -160 61c-10 0 -21 -1 -33 -3c30 -111 161 -132 161 -259c0 -8 -1 -17 -2 -26c-9 -75 -116 -144 -203 -144c-5 0 -10 0 -15 1c-29 3 -100 29 -100 81c0 13 5 28 16 45c27 -13 57 -20 86 -20c46 0 90 18 115 54c-17 116 -169 157 -176 260v10
c0 71 53 98 116 99z" />
    <glyph glyph-name="aogonek" unicode="&#x105;" horiz-adv-x="879" 
d="M445 785c56 -92 61 -237 103 -343h9c111 0 167 54 261 73c3 -21 28 -20 31 -41c-52 -152 -298 -110 -373 -239c35 -62 143 -50 197 -93v-3c0 -44 -23 -66 -42 -91h-16c-130 0 -202 59 -264 125c7 93 61 140 94 207v3c0 20 -30 9 -31 28c-67 -50 -155 -93 -244 -93
c-47 0 -95 12 -140 42c39 240 133 425 411 425h4zM134 401c133 11 229 104 229 226c0 8 0 15 -1 23h-8c-120 0 -191 -129 -220 -249z" />
    <glyph glyph-name="e" unicode="&#x119;" horiz-adv-x="743" 
d="M400 639c-3 -163 -158 -175 -265 -234c37 -51 113 -69 192 -69c73 0 149 15 201 37c23 -25 32 -65 41 -104c-30 -47 -102 -54 -129 -105v-5c0 -54 33 -69 78 -69c52 0 119 20 170 20c9 0 17 -1 25 -2c-18 -69 -105 -103 -190 -103c-79 0 -156 29 -179 87
c3 50 11 96 24 137c-130 42 -293 49 -338 176c19 142 133 255 269 255c33 0 67 -7 101 -21z" />
    <glyph glyph-name="c" unicode="&#x107;" horiz-adv-x="518" 
d="M355 1053c17 0 36 -3 54 -9c-53 -63 -122 -172 -213 -172c-11 0 -22 2 -33 5c20 89 98 175 192 176zM302 769c76 0 148 -37 186 -122c-14 -16 -30 -22 -46 -22c-43 0 -89 44 -120 62c-122 -3 -193 -105 -193 -200c0 -78 47 -152 153 -165c36 14 75 25 103 48
c37 -23 87 -34 95 -87c-42 -42 -96 -59 -151 -59c-128 0 -265 94 -293 201c-4 22 -6 43 -6 63c0 170 141 280 272 281z" />
    <glyph glyph-name="n" unicode="&#x144;" horiz-adv-x="660" 
d="M388 1013c7 0 14 0 21 -1c-27 -79 -107 -188 -207 -188c-5 0 -9 1 -14 1v3c0 93 95 185 198 185h2zM43 723h51c28 -23 32 -70 51 -102c53 21 84 64 128 93c46 -8 93 -14 136 -25c16 -75 44 -138 44 -229c0 -14 -1 -28 -2 -43c25 -59 179 -55 179 -105
c0 -28 -29 -36 -67 -36c-44 0 -100 10 -137 14c-65 82 -83 211 -102 339c-69 -41 -129 -92 -179 -152c-21 -95 13 -245 -93 -255c-15 77 -22 188 -22 292c0 79 4 155 13 209z" />
    <glyph glyph-name="Aogonek" unicode="&#x104;" horiz-adv-x="875" 
d="M747 149c-82 -8 -131 -49 -135 -135c24 -22 34 -52 74 -61c6 -2 12 -2 18 -2c39 0 86 21 114 21c16 0 27 -7 27 -28c0 -38 -81 -66 -153 -66c-20 0 -40 3 -56 7c-42 14 -47 65 -85 68c-9 24 -12 46 -12 66c0 120 127 181 127 283c0 72 -48 128 -48 218v15
c-130 -20 -253 -48 -373 -80c-46 -88 -91 -178 -111 -294c-38 -16 -35 -69 -87 -69c-4 0 -11 0 -17 2v3c0 81 48 168 86 261c66 166 145 333 238 483c54 87 116 212 209 238h4c45 0 93 -216 99 -262c12 -99 14 -182 26 -276c15 -120 63 -218 63 -323c0 -22 -2 -45 -8 -69z
M275 547c108 30 250 27 337 79c-16 122 -29 250 -61 356c-132 -105 -207 -269 -276 -435z" />
    <glyph glyph-name="E" unicode="&#x118;" horiz-adv-x="1092" 
d="M1017 926c-18 -22 -36 -31 -54 -31c-45 0 -90 54 -141 64c-36 8 -72 11 -110 11c-256 0 -541 -159 -541 -390c30 -9 62 -14 96 -14c102 0 221 33 317 33c74 0 133 -19 163 -85c-14 -34 -41 -44 -71 -44c-33 0 -70 11 -103 11c-111 -2 -236 -36 -341 -36
c-21 0 -41 1 -61 4c-18 -58 -21 -131 -21 -207c51 -14 104 -19 156 -19c172 0 348 57 500 57c70 0 134 -12 190 -48c-10 -128 -217 -58 -249 -164c24 -148 315 -27 315 -199c0 -4 -2 -11 -2 -17c-44 -14 -86 -18 -126 -18c-178 0 -322 114 -361 267h-49h-132
c-122 0 -241 3 -341 23c-14 88 -21 180 -21 270c0 232 53 454 206 565c87 63 296 128 478 128c147 0 275 -43 303 -161z" />
    <glyph glyph-name="N" unicode="&#x143;" horiz-adv-x="781" 
d="M381 1312c24 0 46 -10 66 -40c-78 -92 -160 -182 -308 -203c-8 10 -10 21 -10 31c0 42 48 87 90 119c48 38 108 93 162 93zM588 990h18c88 -33 58 -126 70 -220c15 -126 56 -300 71 -466c3 -27 4 -56 4 -84c0 -82 -15 -165 -66 -207c-118 87 -186 227 -273 343
c-88 117 -167 241 -255 353c2 -27 2 -54 2 -81c0 -86 -3 -176 -3 -264v-53c0 -18 0 -35 1 -52c3 -52 15 -109 15 -159c0 -39 -7 -72 -33 -96c-57 20 -78 100 -88 168c-14 84 -21 185 -21 285c0 164 20 328 66 427c165 -50 229 -234 325 -378c66 -100 137 -186 212 -272
c-4 168 -62 382 -62 584c0 58 5 116 17 172z" />
    <glyph glyph-name="z" unicode="&#x17a;" horiz-adv-x="535" 
d="M306 909c20 0 33 -16 45 -32c-43 -55 -108 -122 -186 -122v2c0 37 106 152 141 152zM307 672c40 0 79 -6 115 -26c-73 -137 -195 -225 -276 -354c90 4 179 57 267 57c31 0 61 -6 92 -24c-9 -59 -101 -51 -173 -65c-66 -13 -131 -39 -184 -39c-37 0 -69 13 -92 52
c56 131 161 211 237 321c-48 -11 -112 -21 -174 -21c-31 0 -61 2 -89 8v52c96 3 190 38 277 39z" />
    <glyph glyph-name="z" unicode="&#x179;" horiz-adv-x="947" 
d="M455 1366c18 0 36 -3 54 -13c-57 -63 -138 -187 -234 -187c-18 0 -36 4 -56 14c60 60 142 186 236 186zM776 1016c46 0 94 -6 139 -24c0 -6 2 -12 2 -18c0 -102 -95 -113 -128 -182c15 -20 56 -48 56 -75c0 -12 -8 -23 -29 -33h-9c-48 0 -33 63 -54 90
c-99 -10 -21 -234 -117 -234h-1c-39 2 -45 26 -54 72c-182 -112 -311 -280 -398 -488c28 -15 58 -19 90 -19c102 0 221 57 317 65c15 2 35 2 55 2c56 0 116 -10 126 -66c-129 -44 -312 -110 -477 -110c-80 0 -156 14 -219 56c-6 26 -9 49 -9 71c0 106 65 189 135 273
c147 177 357 354 515 496c-195 -16 -416 -83 -632 -109c-12 27 -42 38 -54 65c36 81 113 64 225 72c171 12 350 96 516 96h5z" />
    <glyph glyph-name="s" unicode="&#x15b;" horiz-adv-x="440" 
d="M377 1062c14 0 26 -6 33 -21c-50 -76 -106 -144 -191 -185c-11 13 -17 27 -17 45c0 6 1 12 2 19c4 25 112 142 173 142zM254 739c36 0 74 -16 99 -46c-2 -35 -23 -46 -49 -46c-22 0 -46 8 -64 18c4 -110 132 -185 132 -306c0 -26 -5 -54 -19 -84
c-36 -33 -89 -49 -140 -49c-92 0 -183 49 -183 131c0 20 5 43 18 67c52 -14 53 -79 85 -114c22 -3 44 -6 66 -6c43 0 81 10 98 42c-24 115 -95 183 -149 269c-1 7 -1 14 -1 21c0 69 50 103 105 103h2z" />
    <glyph glyph-name="S" unicode="&#x15a;" horiz-adv-x="564" 
d="M352 1163c16 0 24 -8 29 -19c-37 -78 -134 -149 -230 -188c-3 8 -5 14 -5 21c0 40 51 67 78 88c43 34 83 65 121 97c3 0 5 1 7 1zM305 880c24 0 49 -4 76 -15c11 -20 32 -38 32 -58c0 -9 -4 -18 -14 -27c-5 -2 -9 -3 -14 -3c-30 0 -55 34 -89 34c-42 0 -73 -34 -109 -49
c38 -115 170 -138 255 -206c30 -58 92 -99 92 -172c0 -5 0 -10 -1 -15c-11 -102 -138 -145 -265 -145c-75 0 -150 15 -202 42c-16 36 -36 68 -36 121c19 6 19 30 44 30h4c27 -25 25 -81 49 -109c34 -9 73 -13 111 -13c111 0 219 36 219 107c0 25 -13 54 -45 88
c-50 53 -147 75 -212 127c-42 34 -71 75 -71 132c0 19 3 39 10 62c49 32 101 68 166 69z" />
    <glyph glyph-name="Z" unicode="&#x17d;" horiz-adv-x="875" 
d="M480 1312c40 0 76 -30 96 -52c3 -21 5 -42 5 -60c0 -182 -124 -239 -306 -239h-26c-27 44 -73 119 -73 169c0 27 14 48 52 50h3c66 0 65 -114 134 -114c8 0 15 1 24 4c42 33 57 82 57 144c0 27 -4 56 -8 86c15 9 28 12 42 12zM765 823c36 -39 50 -80 50 -119
c0 -104 -99 -207 -179 -300c-84 -98 -174 -175 -228 -238c6 -2 12 -2 18 -2c96 0 222 104 320 104c39 0 72 -17 99 -62c-28 -66 -143 -96 -239 -128s-195 -74 -283 -74c-52 0 -102 13 -144 52c120 250 381 364 487 628h-12c-69 0 -145 10 -226 10c-14 0 -25 -2 -39 -2
c-76 -4 -166 -36 -242 -36c-45 0 -85 13 -117 47c62 102 241 95 387 109c116 10 238 9 348 11z" />
    <glyph glyph-name="S" unicode="&#x160;" horiz-adv-x="494" 
d="M253 1108c1 18 13 41 42 42c27 0 97 -83 97 -143v-7c-6 -58 -95 -133 -163 -133c-75 0 -150 74 -157 127c-1 4 -1 8 -1 12c0 38 19 95 49 96h2c28 0 34 -16 34 -38c0 -20 -5 -43 -5 -64c0 -15 3 -28 12 -36c22 -16 64 -12 84 -30c23 18 42 37 60 60v8
c0 72 -54 53 -54 101v5zM220 846c92 0 190 -53 226 -117c-7 -23 -26 -34 -42 -48c-37 46 -104 95 -179 95c-24 0 -49 -5 -74 -17c24 -201 313 -198 313 -394c0 -22 -4 -48 -12 -76c-47 -44 -119 -66 -192 -66c-75 0 -151 23 -200 66c-8 22 -30 59 -30 89c0 16 6 29 24 38
c48 -13 56 -66 85 -97c40 -14 88 -25 133 -25c54 0 102 16 126 61c-41 190 -311 177 -311 396c0 14 1 28 3 44c35 36 82 51 130 51z" />
    <glyph glyph-name="lslash" unicode="&#x142;" horiz-adv-x="457" 
d="M337 1302c20 -29 26 -70 26 -114c0 -54 -9 -115 -9 -170c0 -71 14 -133 73 -161c-99 -145 -44 -428 -91 -621c-13 -8 -28 -12 -42 -12c-9 0 -20 2 -29 5c-7 39 -9 80 -9 121c0 80 8 164 8 247c0 23 0 46 -2 69c-58 -10 -122 -70 -176 -70c-20 0 -40 9 -56 32
c67 110 220 112 237 265c3 28 4 56 4 84c0 57 -4 113 -4 172c0 41 1 85 9 131c15 11 29 22 56 22h5z" />
    <glyph glyph-name="L barré majuscule" unicode="&#x141;" horiz-adv-x="766" 
d="M273 657c21 3 45 18 67 18c10 0 20 -3 28 -12c-7 -56 -64 -63 -95 -95c-3 -42 -7 -96 -7 -147c0 -43 3 -83 13 -114c25 -5 61 -18 92 -18h3c73 3 176 53 258 53c42 0 79 -13 104 -53c-11 -21 -33 -25 -55 -25c-12 0 -24 1 -35 1h-11c-111 -11 -232 -42 -360 -42
c-12 0 -25 0 -37 1c-38 23 -47 72 -47 127c0 49 7 103 7 149c0 14 0 26 -2 38c-46 -11 -83 -84 -125 -84c-13 0 -27 7 -41 25c25 60 91 80 137 119c56 59 17 212 65 279h6c20 0 19 -19 35 -24v-196z" />
    <glyph glyph-name="Aring" unicode="&#xc5;" horiz-adv-x="487" 
d="M318 1134c29 0 58 -10 82 -29v-12c0 -91 -37 -119 -95 -119c-30 0 -66 8 -104 18c-2 11 -3 20 -3 30c0 72 59 112 120 112zM324 1084c-27 -1 -63 -30 -66 -36c-3 -5 -4 -8 -4 -11c0 -6 5 -9 12 -9c25 0 79 28 79 44c0 2 -1 4 -2 5c-5 5 -11 7 -19 7zM258 878
c220 -127 107 -431 199 -654c-91 21 -115 109 -115 221c0 12 1 23 1 35c-14 3 -26 4 -37 4c-63 0 -90 -37 -153 -37c-11 0 -23 1 -37 4c-23 -7 -27 -34 -27 -64c0 -14 1 -30 1 -44c0 -35 -5 -65 -40 -65c-6 0 -12 1 -20 3v27c0 266 144 388 228 570zM267 765
c-3 0 -6 -1 -9 -1c-55 -59 -70 -158 -114 -227c7 0 15 1 23 1c25 0 51 -2 76 -2c53 0 98 8 100 58c-30 7 -31 42 -31 78v14c0 40 -2 79 -43 79h-2z" />
    <glyph glyph-name="Ccedilla" unicode="&#xc7;" horiz-adv-x="990" 
d="M688 1022v-18c0 -54 -22 -72 -52 -72c-44 0 -102 38 -130 62c-231 -20 -372 -236 -372 -468c0 -84 17 -168 56 -248c50 -45 118 -64 190 -64c100 0 211 37 301 82c82 40 156 121 237 121c14 0 28 -3 42 -7c-27 -122 -183 -153 -279 -228c-81 -64 -129 -146 -175 -236
c52 -38 124 -57 166 -105c-15 -44 -40 -59 -70 -59c-64 0 -150 70 -184 102v20c0 106 46 171 106 216c-22 6 -46 8 -70 8c-51 0 -101 -10 -151 -10c-27 0 -53 3 -77 11c-70 24 -83 96 -140 123c-38 68 -56 144 -56 225c0 240 148 510 318 597c34 18 77 26 122 26
c86 0 174 -30 218 -78z" />
    <glyph glyph-name="Adieresis" unicode="&#xc4;" horiz-adv-x="610" 
d="M375 1150c64 -13 81 -72 81 -134c0 -49 -11 -99 -16 -128c-57 4 -67 53 -67 114c0 36 4 78 4 114c0 12 -1 23 -2 34zM224 1053h98c-13 -59 -12 -132 -84 -132c-4 0 -9 0 -14 1v131zM294 878h66c126 -138 102 -426 220 -572c-10 -7 -19 -10 -28 -10
c-58 0 -97 131 -126 186c-20 1 -39 2 -58 2c-84 0 -154 -15 -206 -46c2 -11 3 -21 3 -32c0 -75 -42 -149 -47 -210v-7c0 -23 9 -42 9 -59c0 -8 -2 -16 -9 -22c-6 -3 -11 -4 -16 -4c-24 0 -34 31 -34 63c0 36 12 73 28 73c-2 15 -3 29 -3 42c0 53 15 91 25 134
c-1 15 -4 20 -9 20c-11 0 -31 -26 -57 -26c-7 0 -14 1 -22 6v5c0 57 55 58 110 61c21 162 91 276 154 396zM327 812h-7h-4c-61 -78 -101 -178 -132 -286h242c1 9 1 18 1 26c0 102 -42 161 -67 238c-4 14 -15 22 -33 22z" />
    <glyph glyph-name="C" unicode="&#x106;" horiz-adv-x="1085" 
d="M710 1484c30 0 59 -12 87 -39c-159 -142 -355 -242 -465 -444c-8 -2 -15 -1 -23 -1c-45 0 -63 27 -81 54c60 130 140 203 269 308c63 51 138 122 213 122zM650 953c38 0 76 -4 115 -13c32 -57 84 -96 114 -156c-30 -69 -32 -168 -124 -176c-6 8 -8 17 -8 27
c0 22 11 53 11 83c0 9 -1 16 -3 25c-36 33 -75 62 -123 83c-258 -74 -468 -245 -468 -551v-25c0 -8 0 -16 1 -24c80 -90 245 -132 393 -134h5c202 0 334 98 409 226c44 -2 53 -35 83 -50c-44 -204 -254 -296 -474 -296c-234 0 -479 102 -549 274c-2 16 -2 32 -2 47
c0 108 24 198 74 285c104 180 302 372 546 375z" />
    <glyph glyph-name="o" unicode="&#xf3;" horiz-adv-x="566" 
d="M454 1013c21 0 48 -8 48 -30c0 -26 -121 -88 -131 -94c-53 -35 -95 -57 -131 -87c-69 -57 -82 -133 -184 -140c-13 10 -13 33 -26 44c46 75 174 190 262 253c18 13 106 54 162 54zM320 633c34 0 69 -7 103 -23c33 -16 113 -108 113 -204c0 -17 -3 -33 -8 -50
c-24 -74 -161 -135 -286 -135c-48 0 -95 9 -133 30c-42 38 -60 84 -60 130c0 124 129 252 271 252zM290 520c-24 0 -50 -3 -77 -7c-25 -50 -69 -82 -96 -131c30 -52 90 -75 149 -75c87 0 174 50 175 137c-27 57 -80 76 -151 76z" />
    <glyph glyph-name="O" unicode="&#xd3;" horiz-adv-x="1214" 
d="M662 1514c26 0 50 -8 64 -40c-52 -108 -207 -270 -359 -270c-16 0 -35 2 -51 6c10 69 232 286 314 300c10 2 20 4 32 4zM486 948c100 0 249 -17 349 -27c196 -22 239 -100 349 -241v-26c0 -254 -45 -423 -205 -552c-96 -78 -318 -140 -513 -140c-99 0 -192 15 -258 54
c-102 60 -178 209 -178 383c0 52 7 105 22 161c42 150 227 365 374 385c16 3 38 3 60 3zM662 818c-262 -3 -500 -143 -500 -443c0 -36 2 -75 10 -117c58 -122 186 -174 326 -174c258 0 559 180 559 444c0 22 -2 46 -6 68c-12 62 -72 94 -96 168c-90 34 -188 54 -282 54h-11z
" />
    <glyph glyph-name="é majuscule" unicode="&#xc9;" horiz-adv-x="739" 
d="M670 1214c-2 -93 -124 -84 -235 -106c-70 -15 -147 -48 -204 -48c-24 0 -44 7 -60 22c36 78 168 61 264 79c84 12 141 51 235 53zM181 1004c172 -40 399 -29 528 -113c-34 -30 -71 -41 -111 -41c-88 0 -190 52 -300 52c-26 0 -52 -3 -79 -11c-66 -30 -77 -115 -77 -209
c0 -51 3 -106 3 -157v-24c0 -9 0 -17 -1 -24c20 4 42 5 66 5c66 0 145 -11 211 -11c60 0 111 9 137 43c9 -14 13 -25 13 -37c0 -93 -292 -104 -427 -114v-187c39 -60 99 -78 168 -78c104 0 226 42 334 42c9 0 17 -2 26 -2c-33 -100 -151 -116 -285 -116c-60 0 -122 4 -182 4
c-21 0 -41 0 -61 -2c-80 94 -114 255 -114 423c0 218 58 445 151 557z" />
    <glyph glyph-name="è majuscule" unicode="&#xc8;" horiz-adv-x="709" 
d="M573 1011h4c52 0 90 -25 102 -115c-21 2 -38 3 -58 3c-270 0 -367 -174 -461 -350c144 -87 420 -40 519 -172c-20 -14 -41 -20 -67 -20c-96 0 -230 77 -383 77c-36 0 -74 -5 -112 -15c-2 -14 -3 -27 -3 -39c0 -132 92 -172 132 -264h31c45 0 93 -2 138 -2
c74 0 141 6 177 45c21 26 31 36 33 36c0 -8 -58 -93 -76 -121c-62 -33 -120 -47 -177 -47c-144 0 -268 88 -342 176v346c93 166 234 287 346 434c70 3 141 26 197 28zM219 1202c69 0 145 -36 213 -54c66 -18 190 5 193 -83c-141 42 -376 -10 -412 137h6z" />
    <glyph glyph-name="ê majuscule" unicode="&#xca;" horiz-adv-x="707" 
d="M408 1406h92c27 -26 31 -73 31 -125c0 -30 -1 -60 -1 -90c-3 -8 -3 -19 -3 -29c0 -32 7 -71 7 -103s-8 -55 -40 -55c-8 0 -15 -1 -24 2v308c-122 -63 -141 -227 -215 -338c-10 21 -13 43 -13 64c0 120 136 248 166 366zM459 970c92 0 165 -18 165 -110
c0 -15 -2 -32 -6 -50c-54 26 -101 38 -145 38c-188 0 -284 -212 -326 -390c27 -33 57 -46 90 -46c70 0 153 54 243 54c20 0 39 -2 59 -8c-76 -118 -303 -90 -431 -158c-2 -8 -1 -14 -1 -22c0 -58 48 -70 48 -128c0 -12 -2 -27 -8 -45c66 -9 123 -15 174 -15
c135 0 231 36 336 132c14 -24 20 -44 20 -64c0 -136 -308 -172 -491 -172c-58 46 -110 100 -156 158v8c0 388 116 662 353 814c27 2 52 4 76 4z" />
    <glyph glyph-name="ë majuscule" unicode="&#xcb;" horiz-adv-x="965" 
d="M791 1387c14 -33 19 -64 19 -96c0 -135 -118 -241 -223 -241c-21 0 -40 4 -60 13v3c0 148 116 241 264 321zM240 1338h2c108 0 171 -119 171 -225c0 -34 -6 -70 -21 -98c-122 21 -176 182 -257 288c39 24 73 35 105 35zM573 972c182 0 314 -48 362 -180
c-21 -45 -39 -62 -57 -62c-51 0 -100 128 -186 128c-12 0 -25 -3 -39 -9c-306 -51 -435 -282 -510 -566c122 105 303 152 510 170c-64 -142 -252 -164 -453 -170c10 -138 148 -180 307 -180s338 42 428 68c-57 -122 -238 -183 -422 -183c-236 0 -480 99 -483 295
c16 342 261 454 396 678c52 6 101 11 147 11z" />
    <glyph glyph-name="i" unicode="&#xcf;" horiz-adv-x="354" 
d="M81 1310c45 0 64 -44 64 -90c0 -34 -10 -69 -28 -90c-44 30 -42 114 -58 177c8 2 14 3 22 3zM324 1236v-6c0 -76 -55 -121 -101 -121c-18 0 -34 6 -46 21c21 69 78 94 147 106zM159 975c63 -114 80 -355 80 -571c0 -177 -12 -339 -16 -395c-140 70 -193 258 -193 456
c0 194 53 398 129 510z" />
    <glyph glyph-name="i" unicode="&#xce;" horiz-adv-x="382" 
d="M148 1281c132 -24 148 -161 204 -261h-6c-105 0 -90 120 -140 174c-8 2 -15 2 -21 2c-86 0 -47 -120 -133 -120c-6 0 -14 -1 -22 1c12 94 62 153 118 204zM138 988h5c92 0 114 -68 114 -160c0 -93 -24 -209 -24 -302c0 -33 3 -61 11 -85v-6c0 -132 100 -237 100 -330
c0 -32 -12 -62 -40 -90c-164 141 -208 353 -208 585c0 126 14 258 26 387c6 0 10 1 16 1z" />
    <glyph glyph-name="o" unicode="&#xd4;" horiz-adv-x="1350" 
d="M501 1305h202c60 -20 71 -56 71 -95c0 -21 -3 -44 -3 -66c-6 -6 -8 -13 -8 -22c0 -24 17 -51 17 -75s-18 -43 -90 -43c-15 0 -33 0 -54 2v230c-267 -46 -309 -170 -471 -252c-21 15 -32 30 -32 46c0 90 304 185 368 275zM840 934c178 -2 352 -52 480 -162
c-39 -580 -421 -763 -963 -763c-84 0 -174 4 -266 12c-42 99 -61 190 -61 276c0 398 414 637 804 637h6zM781 752c-306 0 -618 -158 -618 -542v-22c70 -6 140 -11 204 -11c393 0 674 131 736 513c-96 40 -210 62 -322 62z" />
    <glyph glyph-name="O" unicode="&#xd6;" horiz-adv-x="1003" 
d="M442 1439c116 -22 146 -133 146 -245c0 -87 -18 -175 -27 -226c-104 8 -122 99 -122 210c0 63 6 135 6 198c0 22 -1 43 -3 63zM30 1380h177c-24 -106 -22 -236 -152 -236c-8 0 -16 -1 -25 1v235zM442 910c326 -64 531 -226 531 -472c0 -262 -246 -457 -508 -457
c-130 0 -267 48 -377 162c-9 51 -12 97 -12 139c0 332 238 424 366 628zM568 728h-3c-202 0 -394 -224 -394 -436c0 -51 10 -103 36 -149h471c57 108 126 206 126 371c0 32 -2 64 -8 100c-70 80 -150 114 -228 114z" />
    <glyph glyph-name="A" unicode="&#xc0;" horiz-adv-x="1158" 
d="M245 1295c96 0 206 -51 300 -77c93 -26 267 8 271 -116c-198 58 -530 -14 -581 193h10zM461 1019c30 -6 58 -9 88 -15c201 -80 209 -294 284 -462c82 -225 295 -358 295 -642v-3c-198 69 -187 282 -291 417c-140 38 -266 54 -380 54c-92 0 -176 -11 -254 -32
c-81 -14 -34 -210 -126 -210c-12 0 -29 3 -47 12c51 428 259 629 431 881zM481 880c-33 -148 -234 -276 -234 -406c0 -20 6 -38 16 -58c66 52 157 68 259 68c66 0 135 -6 205 -14c-26 176 -51 352 -246 410z" />
    <glyph glyph-name="U" unicode="&#xdb;" horiz-adv-x="1006" 
d="M446 1397c204 -36 229 -249 315 -405h-9c-162 0 -138 184 -216 270c-12 3 -23 3 -33 3c-130 0 -75 -186 -205 -186c-10 0 -22 0 -34 3c18 147 95 235 182 315zM64 1019c98 0 120 -60 120 -144c0 -70 -16 -158 -16 -245c0 -78 13 -156 58 -220c60 -45 94 -126 110 -236
c21 4 41 6 59 6c69 0 120 -25 189 -25c39 0 82 7 138 33c75 76 81 199 81 327v69c0 100 3 198 42 273c96 -90 131 -240 131 -390c0 -172 -46 -348 -94 -441c-72 -30 -130 -39 -182 -39c-74 0 -138 17 -212 17c-34 0 -72 -4 -114 -16c-192 196 -344 553 -344 899
c0 44 4 87 8 131c9 2 18 1 26 1z" />
    <glyph glyph-name="U" unicode="&#xdc;" horiz-adv-x="888" 
d="M628 1376h5c50 -3 72 -68 72 -143c0 -93 -34 -202 -91 -223c-27 50 -62 90 -100 129c42 72 24 235 114 237zM294 1158h2c56 -2 59 -71 79 -129c-16 -14 -33 -18 -48 -18c-48 0 -87 54 -87 98c0 27 16 49 54 49zM50 977h1c94 0 120 -43 120 -111c0 -78 -35 -188 -35 -294
c0 -54 10 -108 38 -156c50 -45 76 -123 84 -222c5 1 10 1 16 1h16c80 0 128 -39 208 -39c30 0 66 6 108 21c146 126 59 434 159 596c68 -75 93 -183 93 -297c0 -176 -61 -363 -118 -455c-54 -18 -98 -24 -137 -24c-93 0 -159 35 -252 35c-22 0 -46 -4 -73 -8
c-144 174 -248 461 -248 746c0 70 6 139 20 207z" />
    <glyph glyph-name="a" unicode="&#xe1;" horiz-adv-x="594" 
d="M519 966c-1 -78 -106 -70 -200 -89c-60 -12 -124 -39 -172 -39c-20 0 -37 4 -51 17c31 66 142 51 223 66c72 10 120 43 200 45zM354 769c31 0 62 -3 91 -8c35 -70 96 -115 119 -197c-25 -180 -153 -341 -321 -341c-36 0 -75 7 -114 24c-1 13 -2 24 -2 36
c0 213 185 241 279 360c-29 32 -75 45 -125 45c-102 0 -218 -56 -231 -124c-14 20 -20 38 -20 56c0 89 163 149 321 149h3zM445 524c-122 -29 -238 -62 -238 -213c0 -8 0 -16 1 -24c144 14 223 93 237 237z" />
    <glyph glyph-name="A" unicode="&#xc1;" horiz-adv-x="649" 
d="M467 1004c0 -50 -68 -46 -129 -58c-39 -8 -80 -25 -111 -25c-13 0 -24 3 -33 11c20 42 92 33 144 43c46 6 78 28 129 29zM313 880h71c135 -148 109 -456 235 -613c-11 -7 -20 -11 -30 -11c-63 0 -105 140 -135 199c-21 1 -41 2 -61 2c-90 0 -164 -15 -221 -49
c2 -11 3 -23 3 -34c0 -81 -45 -160 -51 -225v-8c0 -24 9 -46 9 -63c0 -9 -2 -16 -9 -23c-6 -3 -12 -4 -17 -4c-26 0 -36 32 -36 66c0 38 13 79 30 79c-2 16 -3 30 -3 44c0 57 15 100 26 145c-2 16 -5 21 -10 21c-12 0 -32 -28 -60 -28c-7 0 -16 2 -24 7v5c0 61 59 62 118 65
c23 174 97 297 165 425zM348 810c-4 0 -7 0 -11 -1c-66 -83 -109 -191 -142 -307h259c1 9 1 18 1 27c0 109 -44 174 -71 256c-4 15 -16 25 -36 25z" />
    <glyph glyph-name="percent" unicode="%" horiz-adv-x="598" 
d="M230 868c24 0 50 -6 76 -22c4 -12 6 -24 6 -36c0 -95 -116 -181 -194 -183h-2c-31 0 -60 23 -77 36c11 90 91 205 191 205zM238 797c-52 -1 -106 -38 -114 -97c66 7 101 44 121 97h-7zM528 775c13 0 25 -5 33 -21c-39 -79 -118 -141 -182 -212
c-95 -106 -142 -200 -261 -268c-6 -3 -33 -22 -56 -22c-12 0 -23 5 -29 22c-2 5 -3 10 -3 15c0 49 88 66 106 82c112 91 244 313 365 395c7 5 17 9 27 9zM444 457c56 -1 124 -64 124 -117c0 -44 -45 -59 -67 -96h-110c-7 28 -10 55 -10 82c0 38 6 76 16 112
c13 14 30 19 47 19z" />
    <glyph glyph-name="underscore" unicode="_" horiz-adv-x="606" 
d="M576 220c-45 -64 -146 -84 -260 -84c-93 0 -195 13 -282 26c-3 11 -4 23 -4 36c0 12 1 24 4 38c33 9 75 12 119 12c69 0 146 -7 217 -7c54 0 105 4 144 18c2 1 5 1 8 1c19 0 46 -20 54 -40z" />
    <glyph glyph-name="dièse" unicode="#" horiz-adv-x="555" 
d="M492 881c5 -12 7 -25 7 -38c0 -66 -50 -142 -50 -203c0 -8 1 -16 3 -23c10 -40 50 -35 73 -73c-8 -40 -26 -71 -40 -105c-116 -18 -125 -144 -185 -218h-39c-5 11 -6 22 -6 32c0 41 32 70 32 116v4c-58 -32 -47 -133 -125 -145c-13 12 -18 25 -18 39c0 27 20 56 31 79
c-11 6 -26 8 -43 8c-13 0 -27 -1 -40 -1c-21 0 -40 2 -49 13v7c0 89 158 21 158 110v2c-6 3 -14 4 -21 4c-33 0 -76 -22 -109 -22c-18 0 -33 6 -41 25c23 85 165 49 204 118c22 55 32 123 60 172c5 5 16 8 26 8s21 -3 26 -8c4 -12 6 -24 6 -35c0 -43 -25 -84 -25 -132v-5
c64 40 67 197 112 277h6h22c10 0 20 -1 25 -6z" />
    <glyph glyph-name="n" unicode="&#xf1;" horiz-adv-x="452" 
d="M333 1162c43 -1 89 -72 89 -147c0 -15 -2 -30 -6 -44c-34 -27 -64 -38 -90 -38c-59 0 -103 54 -152 104c-73 -22 -36 -154 -131 -154c-6 21 -9 42 -9 61c0 79 46 140 96 173c10 1 20 2 29 2c88 0 119 -58 169 -97c4 7 5 12 5 18c0 29 -43 48 -49 77c13 32 31 45 49 45z
M116 752c33 -9 58 -24 80 -44c39 10 79 19 125 22c31 -33 37 -83 37 -140c0 -33 -2 -69 -2 -105c0 -33 2 -67 8 -99c10 -48 37 -93 37 -126c0 -17 -8 -32 -29 -42c-137 41 -68 288 -110 424c-66 -9 -77 -60 -77 -122c0 -31 3 -64 3 -97c0 -23 -1 -46 -6 -66
c-10 -45 -60 -115 -120 -115c-9 0 -18 2 -27 5c-4 8 -5 16 -5 23c0 34 34 59 42 109c3 20 4 41 4 63c0 55 -7 114 -7 168c0 60 9 113 47 142z" />
    <glyph glyph-name="N" unicode="&#xd1;" horiz-adv-x="1261" 
d="M832 1505c66 -2 138 -112 138 -229c0 -24 -3 -49 -9 -71c-54 -42 -99 -59 -141 -59c-92 0 -162 82 -238 162c-116 -34 -58 -241 -206 -241c-9 33 -13 65 -13 95c0 124 73 220 151 272c16 2 31 4 45 4c140 0 186 -90 264 -152c6 10 8 19 8 28c0 45 -68 75 -77 120
c21 50 50 71 78 71zM163 998c458 -84 324 -758 782 -842c56 34 69 110 69 200c0 96 -17 208 -17 304c0 124 28 221 152 221c10 0 22 -1 36 -3c34 -34 46 -60 46 -80c0 -51 -82 -72 -106 -160c16 -116 69 -194 69 -324c0 -30 -3 -62 -9 -98c-111 -9 -36 -203 -120 -241
c-516 26 -581 503 -782 843c-135 -186 -115 -527 -181 -782c-51 90 -72 222 -72 362c0 232 58 486 133 600z" />
    <glyph glyph-name="plus" unicode="&#x3e;" horiz-adv-x="493" 
d="M463 673c-65 -198 -273 -255 -358 -433c-7 -1 -13 -2 -19 -2c-31 0 -44 17 -56 36c24 124 120 193 216 274c12 10 84 72 84 75c-1 36 -119 75 -150 92c-62 35 -104 56 -142 91v9c0 25 8 43 25 50c149 -15 288 -113 400 -192z" />
    <glyph glyph-name="plus" unicode="&#x3c;" horiz-adv-x="491" 
d="M177 640c32 -176 198 -217 284 -339c-6 -34 -34 -46 -55 -65c-156 86 -282 202 -376 349c34 94 130 284 225 284h4c45 -2 62 -15 62 -34c0 -50 -122 -144 -144 -195z" />
    <glyph glyph-name="apostrophe" unicode="'" horiz-adv-x="219" 
d="M30 979c14 9 24 23 53 23h6c44 -27 100 -140 100 -220c0 -26 -6 -49 -20 -64h-51c-19 12 -24 28 -24 45c0 15 4 30 4 44c0 5 -1 9 -2 14c-12 53 -66 105 -66 158z" />
    <glyph glyph-name="minucule" unicode="&#xf9;" horiz-adv-x="1104" 
d="M199 1009c98 0 209 -53 305 -79c95 -26 270 9 275 -118c-202 60 -537 -14 -589 196c3 0 6 1 9 1zM90 720h1c69 0 84 -31 84 -75c0 -34 -9 -76 -9 -119c0 -50 13 -101 67 -139c20 -2 38 -3 56 -3c301 0 244 251 430 331c15 -201 90 -315 246 -315c32 0 69 6 109 16
c-17 -84 -114 -142 -204 -142c-74 0 -143 40 -158 138c-95 -97 -222 -144 -342 -144c-179 0 -340 107 -340 307c0 44 8 91 24 143c13 2 25 2 36 2z" />
    <glyph glyph-name="acircumflex" unicode="&#xe2;" horiz-adv-x="687" 
d="M296 1239c170 -30 192 -209 263 -338h-8c-135 0 -115 154 -180 225c-10 2 -20 3 -28 3c-108 0 -61 -156 -169 -156c-8 0 -18 1 -28 3c15 122 78 197 150 263zM322 902c53 0 107 -3 161 -4c113 -59 174 -202 174 -342c0 -171 -92 -337 -297 -337c-18 0 -37 1 -56 4
c-16 34 -24 68 -24 99c0 135 134 238 293 261c-16 128 -153 227 -293 227c-54 0 -108 -14 -156 -47c-6 -19 -8 -35 -8 -48c0 -114 191 -36 191 -150c0 -8 -1 -17 -3 -27c-73 62 -232 38 -270 135c-3 17 -4 33 -4 48c0 158 135 181 292 181zM498 454h-1
c-55 0 -106 -55 -106 -96c0 -22 13 -40 47 -45c11 64 74 76 90 135c-10 4 -20 6 -30 6z" />
    <glyph glyph-name="minuscule" unicode="&#xff;" horiz-adv-x="668" 
d="M608 1053v-13c0 -142 -79 -227 -147 -227c-27 0 -51 13 -69 40c30 132 115 178 216 200zM118 1021c88 -1 125 -35 125 -72c0 -26 -20 -54 -55 -71c-83 24 -81 91 -112 141c15 2 29 2 42 2zM175 819c22 0 45 -5 71 -17c4 -13 6 -23 6 -32c0 -29 -23 -35 -52 -35
c-21 0 -46 3 -67 3c-6 0 -12 0 -17 -1v-196c9 -67 87 -65 130 -98c177 8 196 174 294 261c87 -14 98 -103 98 -203c0 -34 -1 -70 -1 -105c0 -17 0 -34 1 -51c-47 -181 -45 -412 -163 -522c-128 16 -165 124 -165 268c0 19 1 39 2 59c47 132 233 123 233 302
c0 17 -1 35 -5 56c-9 11 -18 15 -27 15c-50 0 -94 -146 -186 -146c-5 0 -10 0 -15 1c-26 -7 -51 -10 -73 -10c-143 0 -209 128 -209 248c0 105 50 203 144 203h1zM475 280c-48 -52 -91 -141 -91 -224c0 -51 17 -99 58 -135c19 53 99 196 99 285c0 42 -17 71 -66 74z" />
    <glyph glyph-name="Majuscule" unicode="&#x178;" horiz-adv-x="608" 
d="M578 957v-6c0 -71 -63 -114 -116 -114c-22 0 -41 7 -55 20c24 66 91 89 171 100zM119 1054c88 -1 125 -35 125 -72c0 -26 -20 -54 -55 -71c-83 24 -81 91 -112 141c15 2 29 2 42 2zM449 734c28 -9 57 -14 87 -14c10 0 20 1 30 2c-6 -20 -12 -38 -18 -58h-6
c-81 -51 -146 -119 -279 -119c-15 0 -30 1 -47 3c-48 -107 -9 -301 -139 -326c21 90 69 154 69 266v13c-7 78 -103 68 -116 140c21 79 10 191 70 232c12 3 22 5 30 5c61 0 38 -84 86 -98c-2 -14 -7 -19 -13 -19c-19 0 -52 50 -57 66c-65 -12 -42 -112 -69 -163
c23 -47 91 -70 163 -70c101 0 209 45 209 135v5z" />
    <glyph glyph-name="z" unicode="&#x17c;" 
d="M279 969h7c13 -15 22 -33 22 -58c0 -7 -1 -15 -2 -23c-14 -12 -42 -17 -70 -17s-56 5 -70 17c12 48 42 81 113 81zM236 786h6c80 -3 117 -60 154 -80c-8 -46 -59 -36 -91 -51c-49 -23 -84 -70 -114 -108h5c49 0 104 31 158 31c22 0 44 -5 65 -20c32 -37 70 -70 70 -139
c0 -10 0 -20 -2 -31c-19 -134 -143 -279 -290 -279c-24 0 -49 4 -74 12c-34 12 -93 55 -93 105c0 10 3 21 8 31c64 -33 115 -77 178 -77c19 0 39 4 61 14c62 27 134 118 134 203c0 36 -13 70 -44 99h-15c-60 0 -121 -19 -172 -19c-34 0 -63 8 -85 36c18 65 63 103 102 147
c-16 5 -35 6 -53 6h-18c-33 0 -65 2 -65 35s108 84 175 85z" />
    <glyph glyph-name="Z" unicode="&#x17b;" horiz-adv-x="959" 
d="M457 1033h12c22 -18 36 -39 36 -70c0 -8 -1 -18 -3 -28c-22 -14 -68 -20 -114 -20s-92 6 -114 20c20 58 69 98 183 98zM294 343c45 -27 94 -36 146 -36c128 0 270 58 386 58c38 0 72 -6 103 -22c-10 -52 -48 -62 -92 -62c-29 0 -61 4 -90 4c-11 0 -21 0 -30 -2
c-107 -19 -230 -60 -331 -60c-61 0 -115 15 -152 60v3c0 144 157 174 241 239c87 67 188 111 242 212c-34 52 -85 68 -142 68c-73 0 -155 -26 -221 -38c-120 -21 -222 -90 -324 -91c7 25 15 51 23 76c179 16 368 126 543 126c63 0 124 -14 182 -51c1 -10 1 -19 1 -28
c0 -218 -190 -266 -334 -365c-44 -31 -86 -91 -144 -91h-7z" />
    <glyph glyph-name="deux" unicode=":" horiz-adv-x="261" 
d="M180 643c17 0 35 -7 51 -25c0 -32 -22 -42 -25 -70c-34 0 -64 3 -90 10c1 50 30 84 64 85zM117 418c18 0 38 -3 59 -10v-86c-20 -22 -48 -35 -77 -35c-24 0 -49 10 -69 30v10c0 59 36 90 87 91z" />
    <glyph glyph-name="I" unicode="&#xed;" horiz-adv-x="322" 
d="M285 1113c5 -12 7 -23 7 -34c0 -103 -201 -180 -243 -291c-13 23 -19 45 -19 64c0 115 203 169 255 261zM138 700c48 -25 63 -64 63 -111c0 -76 -38 -171 -38 -257c0 -16 1 -31 4 -46c-61 17 -80 50 -80 94c0 74 55 177 55 275c0 15 -1 30 -4 45z" />
    <glyph glyph-name="I" unicode="&#xcd;" horiz-adv-x="517" 
d="M459 1067c2 -8 3 -14 3 -20c0 -35 -30 -41 -65 -41c-15 0 -31 1 -46 1c-30 0 -56 -3 -63 -26c58 -228 56 -515 200 -658c-42 -24 -92 -33 -143 -33c-111 0 -228 45 -286 90c12 26 44 33 82 33c42 0 92 -8 133 -8c16 0 30 1 42 4c1 12 1 23 1 34c0 202 -87 317 -87 519v19
c-7 27 -35 32 -69 32c-20 0 -43 -2 -64 -2c-31 0 -58 4 -67 27c20 49 100 66 188 66c94 0 196 -19 241 -37zM373 1553c-60 -131 -155 -226 -286 -286c60 131 155 226 286 286z" />
    <glyph glyph-name="n" unicode="&#x148;" horiz-adv-x="482" 
d="M294 818c141 -70 48 -375 159 -476c-8 -1 -16 -2 -23 -2c-160 0 -79 243 -136 346c-43 -9 -47 -58 -100 -58c-9 0 -20 2 -32 5v-344c-73 18 -89 120 -89 231c0 98 13 202 13 263c0 14 -1 26 -3 35c4 0 8 1 12 1c58 0 57 -59 67 -107c77 2 98 61 132 106zM241 765
c-126 59 -133 237 -211 344c7 1 13 1 19 1c108 0 109 -108 140 -186c93 22 70 160 185 160c8 0 16 -1 26 -2c-32 -127 -141 -177 -159 -317z" />
    <glyph glyph-name="N" unicode="&#x147;" horiz-adv-x="1081" 
d="M469 918c-144 68 -153 271 -242 393c8 1 15 1 22 1c124 0 123 -124 159 -212c106 26 80 183 212 183c9 0 19 0 30 -2c-36 -145 -160 -203 -181 -363zM782 1134c67 -126 80 -308 90 -491c115 -93 179 -236 179 -445c0 -15 0 -30 -1 -46c-436 10 -580 313 -892 447
c-9 -19 -13 -36 -13 -52c0 -81 102 -124 102 -168c0 -15 -12 -31 -45 -48c-109 19 -172 164 -172 295c0 57 12 112 38 151c381 -80 508 -414 848 -535c-1 275 -174 423 -174 675c0 64 12 135 40 217z" />
    <glyph glyph-name="r" unicode="&#x159;" horiz-adv-x="428" 
d="M116 1098c69 -26 75 -114 85 -198c96 21 38 199 155 199c5 0 9 -1 14 -1c-17 -134 -79 -222 -113 -339c24 -90 83 -144 142 -198c-10 -22 -26 -31 -42 -31c-43 0 -95 55 -100 87c-65 -54 -116 -164 -116 -279c0 -49 10 -99 31 -145c-120 69 -142 341 -142 488
c0 19 0 36 1 50c58 -26 85 -82 85 -165v-5c52 30 70 75 70 126c0 110 -81 251 -81 355c0 20 4 39 11 56z" />
    <glyph glyph-name="R" unicode="&#x158;" horiz-adv-x="1075" 
d="M607 709c-44 -46 -109 -72 -199 -72c-22 0 -46 2 -72 5c125 -224 378 -321 710 -338c-55 -50 -130 -72 -212 -72c-250 0 -566 208 -566 483c0 10 0 19 1 28c9 0 18 1 28 1c34 0 69 -2 103 -2c58 0 111 5 139 35c-31 93 -62 185 -169 202c-204 -24 -227 -266 -227 -496
c0 -65 2 -130 2 -188c0 -63 -2 -118 -11 -160c-74 92 -104 205 -104 319c0 289 193 589 360 589c93 0 178 -93 217 -334zM134 1385c112 -12 146 -101 202 -169c85 41 117 136 243 136c9 0 18 0 28 -1c-19 -139 -177 -140 -237 -237c-121 47 -224 114 -236 271z" />
    <glyph glyph-name="t" unicode="&#x165;" horiz-adv-x="537" 
d="M242 1105c6 4 10 6 13 6c4 0 6 -4 6 -10c0 -33 -48 -139 -48 -210c0 -9 1 -17 3 -25c11 -6 21 -9 29 -9c79 0 88 224 183 248c2 -14 2 -27 2 -40c0 -113 -56 -172 -56 -285c0 -6 1 -13 1 -20c-28 13 -50 18 -71 18c-40 0 -71 -20 -115 -45c-3 -40 -4 -79 -4 -116
c0 -157 28 -285 110 -361c74 23 131 64 212 80c-45 -74 -103 -135 -223 -135c-13 0 -27 0 -42 2c-158 81 -54 424 -212 504c144 59 93 314 212 398z" />
    <glyph glyph-name="T" unicode="&#x164;" horiz-adv-x="1013" 
d="M983 1101c-35 -150 -241 -129 -370 -186c-2 -28 -3 -56 -3 -84c0 -248 82 -479 82 -631c-183 108 -119 463 -159 715c-25 2 -50 3 -74 3c-170 0 -296 -44 -429 -82c201 254 672 135 953 265zM666 1498c-50 -144 -166 -223 -212 -371c-125 43 -187 148 -212 291
c106 0 88 -124 159 -159c117 51 117 219 265 239z" />
    <glyph glyph-name="u" unicode="&#x16f;" horiz-adv-x="472" 
d="M108 661c35 -14 47 -35 47 -63c0 -61 -56 -149 -56 -244c0 -20 3 -41 9 -61c8 -1 16 -1 23 -1c187 0 146 228 284 277c21 -39 28 -75 28 -111c0 -71 -26 -141 -28 -227c-32 48 -56 65 -78 65c-53 0 -96 -97 -224 -97c-11 0 -23 0 -36 2c-34 47 -47 101 -47 158
c0 102 41 212 78 302zM323 1122c30 -72 53 -151 61 -246c-40 -42 -98 -66 -180 -66c-20 0 -42 2 -66 5c-17 37 -26 79 -26 119c0 100 54 191 172 191c12 0 25 -1 39 -3zM261 876c-4 14 -6 25 -6 34c0 47 39 56 39 102c0 6 -1 12 -2 18h-92c-9 -35 -23 -72 -23 -100
c0 -32 17 -54 76 -54h8z" />
    <glyph glyph-name="U" unicode="&#x16e;" horiz-adv-x="612" 
d="M271 1476c33 0 67 -16 94 -50v-6c0 -109 -58 -189 -143 -189c-26 0 -55 7 -85 24c-4 18 -6 35 -6 52c0 101 69 169 139 169h1zM248 1401c-27 0 -48 -22 -48 -49s21 -49 48 -49s49 22 49 49s-22 49 -49 49zM80 1055c30 -41 37 -115 37 -205c0 -91 -8 -197 -8 -298
c0 -117 11 -226 57 -294c298 59 343 417 343 717c0 27 0 54 -1 80c50 -90 74 -200 74 -310c0 -271 -149 -545 -441 -545c-10 0 -21 0 -32 1c-53 130 -80 303 -80 474c0 134 17 268 51 380z" />
    <glyph glyph-name="u" unicode="&#xfa;" horiz-adv-x="886" 
d="M82 699c45 -12 54 -61 54 -118c0 -34 -3 -71 -3 -105c0 -53 7 -100 46 -115c20 -4 38 -5 54 -5c225 0 114 336 333 343c-3 -42 -5 -83 -5 -121c0 -158 37 -279 195 -279c29 0 62 4 100 13c-59 -87 -125 -115 -197 -115c-134 0 -286 98 -440 98c-45 0 -91 -8 -137 -31
c-22 68 -52 174 -52 270c0 64 14 124 52 165zM566 1135c-24 -178 -161 -242 -364 -242h-23c40 170 233 186 387 242z" />
    <glyph glyph-name="U" unicode="&#xda;" horiz-adv-x="1138" 
d="M57 1115c101 -31 124 -116 124 -220c0 -88 -16 -189 -16 -283c0 -133 33 -251 193 -295c412 42 450 304 450 590v60c119 -48 144 -129 144 -216c0 -64 -13 -131 -13 -193c0 -92 28 -173 169 -212c-45 -13 -81 -18 -111 -18c-77 0 -120 34 -189 77
c-132 -80 -209 -192 -450 -207c-267 117 -328 326 -328 562c0 114 14 235 27 355zM808 1500c-49 -149 -199 -237 -450 -266c88 125 238 214 450 266z" />
    <glyph glyph-name="d" unicode="&#x10f;" horiz-adv-x="636" 
d="M570 1307c19 -50 36 -150 36 -246c0 -113 -23 -221 -93 -238c0 180 19 342 57 484zM314 1335c159 -201 76 -644 171 -909c27 16 29 57 72 57c4 0 8 0 13 -1c-25 -70 -26 -163 -114 -170c-48 56 -32 175 -85 227c-143 -80 -105 -341 -327 -341h-14v19
c0 405 304 589 304 953c0 51 -6 106 -20 165zM115 284c64 81 163 222 163 356c0 34 -6 67 -20 98c-57 -95 -155 -252 -155 -382c0 -25 4 -50 12 -72z" />
    <glyph glyph-name="D" unicode="&#x10e;" horiz-adv-x="922" 
d="M391 1493c114 -7 60 -180 99 -262c112 41 75 232 228 232c11 0 22 -1 34 -3c-25 -160 -162 -210 -197 -361c241 -56 338 -202 338 -361c0 -260 -257 -555 -560 -555c-77 0 -157 19 -237 63c40 -11 81 -16 122 -16c294 0 573 270 573 500c0 139 -102 264 -367 304
c-76 -157 -99 -367 -99 -599c0 -30 0 -60 1 -90c-79 20 -104 73 -104 142c0 115 71 272 71 371v12c-6 12 -15 16 -26 16c-38 0 -102 -60 -181 -60c-18 0 -37 3 -56 11v13c0 216 181 249 396 249h31c-33 93 -72 180 -72 307c0 27 2 56 6 87z" />
    <glyph glyph-name="O barré minuscule" unicode="&#xf8;" horiz-adv-x="878" 
d="M806 1059c30 -11 42 -25 42 -42c0 -60 -150 -147 -186 -188c55 -59 78 -128 78 -197c0 -207 -207 -421 -416 -421c-31 0 -63 5 -93 15c-106 -8 -52 -177 -167 -177c-10 0 -21 1 -34 4c185 261 108 720 546 776c104 49 137 170 230 230zM260 398c12 116 182 190 182 279
c0 12 -3 24 -10 37c-53 -70 -185 -171 -185 -267c0 -17 4 -33 13 -49zM260 283c14 -2 28 -3 42 -3c174 0 332 140 332 288c0 49 -17 99 -58 146c-84 -165 -227 -271 -316 -431z" />
    <glyph glyph-name="O barré majuscule" unicode="&#xd8;" horiz-adv-x="1112" 
d="M506 1060c8 -10 23 -13 42 -13c44 0 113 19 178 19c19 0 38 -1 56 -6c138 70 153 264 300 326c-40 -136 -113 -238 -200 -326c117 -92 166 -198 166 -303c0 -281 -347 -556 -657 -556c-28 0 -57 2 -85 7c-108 -68 -135 -216 -276 -250c21 137 142 174 200 275
c-39 86 -58 183 -58 282c0 306 176 621 439 621c6 0 13 -1 20 -1c-17 -49 -67 -67 -125 -75zM381 935c-72 -88 -153 -262 -153 -427c0 -71 15 -140 53 -200c157 236 333 452 476 702c-14 1 -28 2 -41 2c-137 0 -221 -54 -335 -77zM381 258c268 9 608 243 608 476
c0 78 -38 157 -132 226c-187 -190 -409 -475 -476 -702z" />
    <glyph glyph-name="C" unicode="&#x10d;" horiz-adv-x="501" 
d="M438 709c2 -17 3 -32 3 -46c0 -51 -13 -88 -35 -118c-25 60 -57 84 -91 84c-95 0 -201 -192 -205 -314c30 -26 61 -36 92 -36c93 0 191 88 269 101c-2 -195 -207 -187 -394 -197c-33 45 -47 100 -47 159c0 180 139 387 313 387c31 0 63 -6 95 -20zM110 1135
c80 -30 87 -131 99 -229c107 1 78 137 185 137c13 0 27 -2 44 -6c-62 -124 -116 -255 -262 -295c-19 115 -69 200 -69 335c0 18 1 38 3 58z" />
    <glyph glyph-name="C" unicode="&#x10c;" horiz-adv-x="1043" 
d="M994 1097c13 -24 19 -49 19 -75c0 -99 -94 -201 -285 -201c-15 0 -30 1 -45 2v6c0 93 181 62 181 155c0 6 -1 14 -3 22c-37 7 -74 10 -110 10c-330 0 -581 -281 -581 -536c0 -73 21 -144 67 -206h10c368 0 570 113 703 274c7 -17 10 -34 10 -51
c0 -171 -344 -310 -601 -310c-63 0 -120 8 -166 26c-113 43 -163 136 -163 246c0 278 319 670 750 670c69 0 140 -10 214 -32zM861 1524c-155 -128 -201 -330 -446 -396c-68 96 -148 182 -178 304h9c160 0 137 -125 214 -182c141 82 122 274 383 274h18z" />
    <glyph glyph-name="ae" unicode="&#xe6;" horiz-adv-x="1105" 
d="M749 914c29 -27 34 -79 34 -136c0 -31 -2 -65 -2 -96c0 -10 1 -20 1 -29c-68 -83 -228 -71 -228 -221v-7c27 -15 54 -22 81 -22c147 0 293 191 407 191c12 0 23 -2 34 -6c-73 -286 -538 -180 -620 -457h-10c-117 0 -199 35 -284 66c8 188 159 231 228 358
c-33 43 -53 99 -97 131h-5c-140 0 -120 -159 -191 -228c-48 34 -67 73 -67 113c0 119 174 247 263 278c12 1 23 2 34 2c59 0 97 -21 97 -81c0 -6 0 -12 -1 -19c101 43 118 170 263 170c19 0 39 -2 63 -7zM521 588c46 68 171 57 171 171c0 16 -2 35 -8 57h-6
c-88 0 -185 -84 -185 -162c0 -23 9 -46 28 -66zM293 262c37 -8 56 -36 102 -36c8 0 17 1 28 3c-1 11 -2 22 -2 34c0 6 1 13 1 20c0 36 -3 70 -32 77c0 -3 1 -7 1 -10c0 -62 -94 -29 -98 -88z" />
    <glyph glyph-name="A" unicode="&#xc6;" horiz-adv-x="1185" 
d="M902 1169h15c96 0 186 -19 239 -71c-3 -43 -33 -56 -75 -56c-60 0 -146 25 -220 25c-46 0 -88 -10 -116 -43c-47 -54 -86 -116 -112 -190c-4 -70 -15 -148 -28 -226c11 -4 28 -5 50 -5c72 0 194 16 299 16c32 0 63 -2 90 -6c-127 -61 -273 -104 -455 -111
c-15 -93 -28 -183 -30 -262c35 -4 68 -6 100 -6c154 0 263 46 385 80c-33 -187 -316 -126 -478 -184v-2c-7 -1 -15 -2 -21 -2c-177 0 -127 439 -318 439c-10 0 -20 -2 -31 -4c8 63 26 88 51 88c73 0 199 -227 234 -299v14c0 88 7 180 7 268c0 125 -14 243 -83 332
c-209 -53 -270 -443 -349 -594c-18 34 -26 73 -26 114c0 247 287 590 421 651c38 -1 68 -9 93 -23c92 23 230 55 358 57z" />
    <glyph glyph-name="e" unicode="&#x11b;" horiz-adv-x="634" 
d="M443 845c15 -37 22 -72 22 -106c0 -170 -176 -296 -346 -339c44 -81 116 -108 196 -108c95 0 202 37 290 68c-100 -128 -199 -178 -285 -178c-161 0 -278 174 -278 344c0 161 106 319 382 319h19zM119 522c141 7 204 93 243 202c-15 3 -29 4 -42 4
c-136 0 -128 -143 -201 -206zM362 1331h121c-4 -245 -161 -386 -289 -386c-89 0 -164 68 -164 215c0 27 3 57 8 90c90 -32 101 -141 162 -202c98 51 131 165 162 283z" />
    <glyph glyph-name="E" unicode="&#x11a;" horiz-adv-x="1028" 
d="M926 961h-15c-97 0 -215 8 -327 8c-202 0 -384 -27 -384 -176c0 -41 14 -92 45 -154c29 -7 57 -9 84 -9c106 0 198 40 279 40c37 0 71 -8 103 -31c-78 -113 -293 -90 -466 -108c-5 -22 -7 -42 -7 -59c0 -85 44 -126 44 -210c0 -6 -1 -12 -1 -18c134 11 361 147 532 147
c78 0 144 -28 185 -111c-273 -38 -534 -87 -789 -143c-24 203 -76 378 -179 502h108c-27 64 -39 121 -39 170c0 204 208 284 419 284c170 0 341 -52 408 -132zM245 1499c111 -8 112 -127 144 -215c91 48 109 206 206 206c22 0 48 -8 80 -27c-60 -119 -182 -177 -215 -323
c-129 48 -217 136 -217 311c0 16 1 31 2 48z" />
    <glyph glyph-name="beta" unicode="&#x3b2;" horiz-adv-x="726" 
d="M467 924c-1 -84 2 -172 -82 -172h-4c94 -107 297 -113 314 -285c1 -7 1 -13 1 -20c0 -119 -101 -245 -215 -245c-52 0 -108 27 -157 94c35 -5 66 -7 93 -7c119 0 166 46 166 110c0 128 -187 325 -344 353c7 79 105 65 142 114c2 11 2 20 2 29c0 67 -43 91 -87 114
c-139 -75 -179 -263 -179 -474c0 -223 45 -472 65 -638c-105 86 -152 303 -152 528c0 314 92 641 247 641c56 0 119 -42 190 -142z" />
    <glyph glyph-name="t" unicode="&#x21b;" horiz-adv-x="431" 
d="M215 222c4 1 8 1 12 1c38 0 50 -37 50 -80c0 -58 -21 -127 -34 -142c-39 28 -51 68 -51 107c0 43 15 87 23 114zM77 1133c48 -5 62 -35 62 -75c0 -61 -35 -144 -35 -191c0 -4 1 -7 1 -10c4 -3 9 -5 15 -5c46 0 158 82 206 115c10 -15 14 -29 14 -42
c0 -83 -164 -138 -235 -179c-3 -29 -4 -56 -4 -82c0 -121 29 -213 59 -304c21 -2 42 -3 62 -3c82 0 144 20 159 86c14 -19 20 -37 20 -55c0 -67 -95 -119 -200 -119c-23 0 -46 3 -69 8c-78 96 -102 226 -102 368c0 159 30 333 47 488z" />
    <glyph glyph-name="T" unicode="&#x21a;" horiz-adv-x="1178" 
d="M713 279c-14 40 -27 54 -40 54c-33 0 -67 -86 -134 -86c-4 0 -8 0 -12 1c-8 194 -36 370 -36 573c0 45 2 92 5 141c-87 -3 -239 -94 -348 -94c-56 0 -100 23 -118 94c15 -1 30 -2 45 -2c327 0 588 236 867 236c67 0 136 -14 206 -48c-74 -164 -353 -123 -559 -155v-559
c70 -54 221 -27 248 -124c-116 -184 -276 -324 -434 -466c-1 5 -1 9 -1 14c0 137 224 287 311 421z" />
    <glyph glyph-name="s" unicode="&#x219;" horiz-adv-x="556" 
d="M523 815c2 -9 3 -18 3 -25c0 -42 -35 -48 -78 -48c-18 0 -39 1 -58 1c-35 0 -66 -5 -75 -32c44 -100 82 -191 82 -275c0 -76 -31 -146 -117 -210c34 -64 75 -120 75 -218c0 -18 -2 -38 -5 -59c-75 179 -320 302 -320 494c0 20 3 39 8 60c10 3 19 4 27 4
c85 0 14 -155 77 -177c46 35 127 34 173 69c2 11 2 21 2 30c0 115 -106 122 -106 235v13v3c0 94 110 171 210 171c37 0 74 -11 102 -36z" />
    <glyph glyph-name="S" unicode="&#x218;" horiz-adv-x="500" 
d="M354 1109c9 -27 24 -75 24 -116c0 -37 -13 -67 -57 -67c-4 0 -8 1 -12 1c12 23 17 43 17 61c0 41 -26 71 -63 99c-59 -32 -129 -54 -137 -137c110 -129 345 -293 345 -455c0 -70 -44 -140 -162 -206c25 -16 37 -48 37 -81c0 -53 -30 -112 -83 -124v11c0 53 27 80 27 133
c0 11 -1 24 -4 38h-11c-53 0 -79 -26 -132 -26c-12 0 -25 1 -39 4c-34 43 -74 79 -74 155c0 15 2 31 5 50h8c66 0 32 -100 61 -137c15 -2 29 -2 43 -2c160 0 216 105 276 207c-88 114 -336 341 -336 479c0 68 60 114 229 114c12 0 25 -1 38 -1z" />
    <glyph glyph-name="abreve" unicode="&#x103;" horiz-adv-x="569" 
d="M379 608c-34 31 -63 43 -89 43c-101 0 -156 -185 -258 -197c-1 12 -2 23 -2 33c0 132 88 173 156 237c-76 8 -124 125 -124 234c0 96 37 187 124 191c5 -23 7 -45 7 -66c0 -77 -29 -139 -29 -188c0 -21 6 -39 22 -55c117 22 190 126 190 245c0 46 -11 94 -35 141
c14 4 26 6 36 6c80 0 52 -107 118 -121c-23 -145 -78 -257 -193 -309c85 -56 158 -126 232 -194c3 -24 5 -47 5 -69c0 -190 -124 -296 -262 -296c-56 0 -115 18 -168 56c-4 21 -5 41 -5 59c0 175 162 187 275 250zM186 377c23 -24 62 -38 99 -38c50 0 97 26 97 87
c0 8 -1 18 -3 28c-21 1 -42 2 -61 2c-71 0 -127 -13 -132 -79z" />
    <glyph glyph-name="A" unicode="&#x102;" horiz-adv-x="821" 
d="M325 1117c186 -51 147 -325 207 -502c59 -112 259 -157 259 -296c0 -26 -7 -55 -23 -88c-15 -2 -29 -3 -43 -3c-192 0 -199 188 -281 299c-11 2 -20 2 -29 2c-81 0 -98 -63 -179 -63c-9 0 -18 0 -29 2c4 103 95 119 201 119c12 0 24 -1 36 -1c-3 154 -31 284 -89 384
c-213 -142 -149 -561 -325 -739v4c0 393 147 638 295 882zM709 320c-4 75 -43 114 -118 118c4 -75 43 -114 118 -118zM384 1442h8c106 0 152 -59 170 -147c-14 -116 -112 -150 -243 -150c-17 0 -35 1 -53 2c-19 41 -58 92 -58 142c0 22 8 44 29 65c37 -41 86 -125 155 -125
c24 0 51 10 81 36c1 7 1 13 1 18c0 78 -91 63 -91 141c0 5 0 11 1 18z" />
    <glyph glyph-name="Le" unicode="&#xa5;" horiz-adv-x="1293" 
d="M1204 1151c-51 -160 -203 -219 -271 -361c24 -26 51 -35 80 -35c63 0 135 40 208 40c14 0 29 -1 43 -5c-30 -170 -332 -69 -421 -181c15 -27 50 -34 92 -34c36 0 77 5 113 5c54 0 98 -11 98 -65c0 -8 -1 -17 -3 -26c-34 1 -68 2 -102 2c-87 0 -168 -6 -229 -32v-211
c-5 0 -10 -1 -14 -1c-56 0 -72 29 -72 66s16 82 26 116c-12 1 -25 1 -39 1c-40 0 -83 -2 -123 -2c-77 0 -145 9 -169 61c1 39 22 51 55 51c53 0 135 -32 210 -32c23 0 45 3 66 11c-13 73 -58 94 -117 94c-83 0 -195 -42 -285 -42c-43 0 -81 10 -109 38v4c0 51 38 63 89 63
s113 -12 163 -12c19 0 35 2 49 6c-155 136 -417 165 -512 361c210 -11 439 -263 692 -331c236 75 197 425 482 451z" />
    <glyph glyph-name="bitcoin" unicode="&#x243;" horiz-adv-x="1185" 
d="M553 1118h215c16 -47 92 -143 92 -219c0 -32 -13 -61 -49 -81c61 -96 232 -82 299 -172c-5 -19 -8 -35 -8 -48c0 -65 53 -77 53 -141c0 -8 0 -16 -2 -25c-13 -90 -190 -182 -333 -182c-91 0 -169 38 -181 139c54 -24 125 -41 191 -41c94 0 179 34 195 127v11
c0 143 -122 163 -265 163c-53 0 -110 -3 -164 -3c16 141 159 186 159 294c0 26 -9 56 -30 92h-2c-220 0 -288 -174 -288 -368c0 -45 4 -91 10 -136c11 0 21 -1 31 -1c75 0 140 11 216 11c31 0 64 -2 100 -7c-9 -56 -70 -69 -152 -69c-55 0 -121 6 -186 8
c14 -78 35 -150 57 -209c-93 33 -145 111 -167 208c-53 -2 -106 -7 -154 -7c-68 0 -125 9 -160 42c29 33 81 43 142 43c50 0 106 -7 161 -12c-2 19 -3 38 -3 57c0 216 104 465 223 526z" />
  </font>
</defs>
</svg>
